<?xml version="1.0" encoding="UTF-8"?><svg id="_レイヤー_2" xmlns="http://www.w3.org/2000/svg" viewBox="0 0 368.15 368.16"><g id="_レイヤー_1-2"><path d="M351.69,0c-.6,.02-1.19,.07-1.78,.16h-93.91c-8.84-.12-16.1,6.94-16.23,15.77-.12,8.84,6.94,16.1,15.77,16.23,.15,0,.3,0,.45,0h57.38L148.69,196.85c-6.37,6.12-6.58,16.25-.46,22.62s16.25,6.58,22.62,.46c.16-.15,.31-.3,.46-.46L336,54.79v57.38c-.12,8.84,6.94,16.1,15.77,16.23,8.84,.12,16.1-6.94,16.23-15.77,0-.15,0-.3,0-.45V18.19c1.21-8.75-4.9-16.83-13.66-18.04-.88-.12-1.77-.17-2.65-.14ZM32,64.16C14.51,64.16,0,78.67,0,96.16v240c0,17.49,14.51,32,32,32h240c17.49,0,32-14.51,32-32V134.91l-32,32v169.25H32V96.16H201.25l32-32H32Z"/></g></svg>