<svg width="18" height="18" viewBox="0 0 18 18" fill="none" xmlns="http://www.w3.org/2000/svg">
<g clip-path="url(#clip0_968_3302)">
<path fill-rule="evenodd" clip-rule="evenodd" d="M13 9H5V16.9245L8.99994 15L13 16.9245V9Z" fill="#FE6666"/>
<path d="M9.00007 1.56226C5.4308 1.56226 2.53076 4.4623 2.53076 8.03156C2.53076 11.6008 5.4308 14.4988 9.00007 14.4988C12.5693 14.4988 15.4694 11.6008 15.4694 8.03156C15.4694 4.4623 12.5693 1.56226 9.00007 1.56226Z" fill="#FFCB3C"/>
<path d="M9.00015 2.96777C6.20754 2.96777 3.93848 5.23891 3.93848 8.03152C3.93848 10.8241 6.20754 13.0932 9.00015 13.0932C11.7928 13.0932 14.0618 10.8241 14.0618 8.03152C14.0618 5.23891 11.7928 2.96777 9.00015 2.96777Z" fill="#FFEA54"/>
<g clip-path="url(#clip1_968_3302)">
<path d="M11.5 6.49996L10.5909 5.72607H6.13637C5.78477 5.72607 5.5 6.01084 5.5 6.36244V9.86245H6.13637C6.13637 10.389 6.56432 10.817 7.09092 10.817C7.61751 10.817 8.04546 10.389 8.04546 9.86245H9.95455C9.95455 10.389 10.3825 10.817 10.9091 10.817C11.4357 10.817 11.8636 10.389 11.8636 9.86245H12.5V8.27154L11.5 6.49996ZM7.09092 10.3397C6.82682 10.3397 6.61364 10.1265 6.61364 9.86244C6.61364 9.59834 6.82682 9.38516 7.09092 9.38516C7.35501 9.38516 7.56819 9.59834 7.56819 9.86244C7.56819 10.1265 7.355 10.3397 7.09092 10.3397ZM10.9091 10.3397C10.645 10.3397 10.4318 10.1265 10.4318 9.86244C10.4318 9.59834 10.645 9.38516 10.9091 9.38516C11.1732 9.38516 11.3864 9.59834 11.3864 9.86244C11.3864 10.1265 11.1732 10.3397 10.9091 10.3397Z" fill="#FFCB3C"/>
</g>
</g>
<defs>
<clipPath id="clip0_968_3302">
<rect width="18" height="18" fill="white"/>
</clipPath>
<clipPath id="clip1_968_3302">
<rect width="7" height="7" fill="white" transform="translate(6 5)"/>
</clipPath>
</defs>
</svg>
