<svg xmlns="http://www.w3.org/2000/svg" xmlns:xlink="http://www.w3.org/1999/xlink" width="1366" height="1209" viewBox="0 0 1366 1209"><defs><clipPath id="a"><rect width="1366" height="1209" transform="translate(277 8759)" fill="#f8fbfa"/></clipPath><clipPath id="b"><rect width="13493.423" height="14090.538" fill="#bad2da" stroke="#f8fbfa" stroke-width="5"/></clipPath></defs><g transform="translate(-277 -8759)"><rect width="1366" height="1209" transform="translate(277 8759)" fill="#f8fbfa"/><g opacity="0.25" clip-path="url(#a)"><g transform="translate(-7591.633 2843.731)"><g clip-path="url(#b)"><path d="M2453.084,12358.276s26.2,20.489,26.2,21.617c0,1.153,12.5,45.583,12.5,45.583l-2.229,18.209-45.585,72.862-31.885,6.837s-14.778-3.433-14.778-2.253c0,1.125,4.534,17.081,4.534,17.081l-14.8,4.533,12.5,17.083-35.266,19.386-27.351-8.017,10.244,19.389s-33.012,5.71-33.012,7.963c0,2.281,4.559,21.641,4.559,21.641l-11.4,5.685-15.93-2.254-4.583,22.743s-51.246-21.615-61.49,12.55l29.63,28.452s-14.8,17.081,15.955,35.341l4.533,17.08-29.605-25.095-25.047,23.92-26.224,58.084s8.015,26.2,6.838,26.2c-1.128,0,14.827-15.957,14.827-14.778,0,1.128,9.092,13.65,9.092,14.778s-77.419,61.514-77.419,61.514l-14.828-5.711,6.838-36.417s-14.8-25.1-14.8-26.2c0-1.152,7.965-23.921,7.965-23.921l27.326-36.467s35.341,1.178,25.1-36.417l-23.92-60.362,4.533-12.55,11.4,11.421,18.234-14.827,9.092,4.585,26.2-30.759,3.406-12.548,12.549-6.813,4.533,6.813s47.839-29.605,47.839-31.859c0-2.3,12.523-21.665,11.371-21.665-1.127,0-45.535-19.337-45.535-19.337l-12.548-28.5-2.255-22.743,1.127-12.549,39.875,2.3,28.453,10.245-10.244,23.919,19.386,15.9,37.57-15.9s1.128-34.164,35.292-43.28l-3.406-15.954s44.408-17.082,52.373-72.887ZM863.315,13669.051l25.047,42.128,10.244,23.9,19.386,1.148,9.067,12.522L960.1,13777.2s-63.769,3.43-77.445,9.141l-23.92-6.838-11.371-15.955s20.488-3.43,19.386-3.43c-1.177,0-12.548-21.615-12.548-22.743,0-1.153,7.965-10.243,7.965-10.243l1.152-21.667,10.244-2.254Zm-646.858,302.89,29.63-29.579s22.768,18.209,21.615,18.209c-1.127,0,27.326-3.407,27.326-3.407s1.152-20.512,2.279-21.64c1.127-1.152,20.513-18.234,20.513-18.234l14.778-18.209s8.015-19.387,8.015-20.513c0-1.1,3.406-20.487,3.406-20.487h18.209l-6.838,26.2-19.361,33.013-21.615,28.5-4.559,78.573-19.361,2.253-10.244,11.4-27.351,1.127-10.244-13.651-3.406-12.547,14.778-11.371-7.94-22.794-21.64,3.407Zm-157.169-2.25,22.793,20.508,66.048,28.454-23.92,52.374-12.5,15.954-22.793-5.71-39.874-1.127-20.488-21.615v12.5H4.637l-4.559-13.675,27.351-25.022,17.082,12.524-1.127-41Zm3027.379-5956.2-6.186,3.106-13.05,54.675,6.813,3.708,7.464-.6,5.611-5.611Zm2.48,64.6-3.106,29.831-14.9,15.529-.6,13.65,10.545,9.343-13.651,1.253-10.569,14.9,1.853,8.065,11.2,4.357-2.48,8.692-15.554-.626-10.545-18.635-8.065,17.409,16.756,11.17s11.8,0,11.8-.626,24.846-10.544,24.846-10.544l20.488-26.726,15.554-27.327s-11.17-8.09-9.342-8.09c1.879,0,13.05-4.959,13.05-4.959l-4.333-8.715,11.8-1.228,4.985-6.838-8.717-6.813,13.675-5.61,7.439-14.278v-33.562l-18.61.651.6,16.13h-8.667l-1.878,15.555ZM2891,8128.428c1.252-1.227,9.944-11.171,9.944-11.171l15.553-3.105,3.106-7.464,6.813-.651s9.292,20.513,8.691,21.165c-.626.6-11.171,5.559-11.171,5.559l-3.106,9.944h-9.943l-11.171-11.8S2889.774,8129.656,2891,8128.428Zm20.488,72.035-7.439,23.621,1.879,13.674,3.732,7.439-3.732,6.838-6.838,4.984-5.611,13.65,4.358,6.186v8.717s-7.464.626-8.065.626c-.626,0-2.5-7.463-2.5-7.463s-8.065,3.1-8.065,4.357-3.105,9.942-3.105,9.942l-16.155,4.334-6.838,6.839,6.838,1.251,12.448-5.609,1.828,8.715,4.984,6.839s-9.317,7.438-9.317,6.838c0-.652-11.8,1.227-11.8,1.227l-9.317,8.716s.625,7.439,0,7.439,16.155,11.8,16.781,11.8c.6,0,11.171,13.051,11.171,13.051s-1.228,10.544-1.228,9.942c0-.625-.651,17.383-.651,17.383v17.384l1.879,12.448s13.65,8.063,13.049,7.438c-.626-.626,0-15.527,0-15.527l-3.106-9.945,9.317-4.959,8.667,3.732,1.9-13.676-5.61-11.17,4.984-7.465,4.333-15.528.626-12.449,14.878,6.237,6.237-9.943,16.756-13.025,1.252-14.927-9.292-7.439-19.286,8.692-17.383,3.079.6-23.569,5.01-27.323,12.4-30.459-8.691-12.423,4.959-17.408Zm6.837-35.391c0-.626,12.448,14.276,12.448,14.276l-6.838,3.13,4.333,16.131-11.772-6.838-1.277-21.74S2918.328,8165.7,2918.328,8165.072Zm-81.376,185.722,21.139,4.333,8.065,6.235,1.854,22.367-.627,12.4-20.488-8.664-14.9-.627-5.585-17.408-1.252-14.9Zm-13.025,33.563,11.8,19.862-7.439,27.352-8.115,8.665-17.383-33.537-13.675-3.106v-11.17l9.943-6.838,7.464,8.717,11.2,6.211-3.732-13.048,7.464,5.559Zm-41.628,26.049,15.529,9.943,7.464,18.034-14.3,20.513-19.862-5.61-9.343-12.423,4.383-22.968,6.838-1.253,8.065,19.887,8.691-3.13Zm-91.3,66.5,22.342-9.944s3.106,10.546,3.732,9.944c.6-.627,8.09-9.944,8.09-9.944l7.439,9.944,3.131-23.62s6.813,4.359,6.813,3.731,9.944-16.781,9.944-16.781l11.171,27.327,13.049,5.609-5.585,29.18,1.878,8.09,26.049,24.22-3.707,8.692-40.4,1.252-5.561-10.544-20.488,6.187-.626,17.408,12.4,7.465v10.542l-9.944,13.051s-8.666,0-8.666-.651c0-.6-2.5-13-2.5-13l-6.211-6.838-39.724-1.88-3.757,8.718h-13.025l-1.277-8.116-16.105-3.707,3.707-16.781,7.464-.625V8557l13.05,1.278,11.171-33.564-9.343-22.366,4.358-8.064-5.586-13.65-1.252-19.886,8.717-10.57,13.049.626,7.439,9.944Zm318.971-1208.258s5.961-24.771,5.961-25.623,9.392-28.2,9.392-28.2l33.312,3.432,17.933-34.164,10.244-7.689,32.461,22.216-11.947,15.354,10.244,4.283-11.948,22.217-13.676-12.824-6.838,11.1,19.662,11.973,1.7,13.649-1.7,14.528s-5.135,17.083-45.285,60.637l-5.961,11.973,7.665,3.407-7.665,25.622,13.651-11.947-5.109,31.584,10.244,5.134-5.986,17.934-15.379,16.23-9.392-9.392.851-29.031-7.689-5.133-12.8,17.934-11.095-6.839,7.664-14.527-7.664-3.406-10.27,18.786s-29.029,5.987-29.029,3.432c0-2.581.851-11.121.851-11.121l23.069-1.706,3.406-35.013,17.083-17.933H2999.7l2.58-17.935,15.354-28.2,15.379-6.812Zm-49.543,158,13.651-.852.851,17.934,21.365-3.406,11.1,5.986L2998,7432.628s9.393-3.407,8.541-3.407,17.082,21.34,17.082,21.34l13.676-.851,12.8-3.406,11.1.851-11.1,11.947-18.785,3.432-5.135,30.732-10.244,9.393s-15.379,56.38-15.379,57.232-31.584,27.326-32.436,26.475S2957,7567.58,2957,7567.58l-13.651,7.69,5.11-50.395,5.986-48.692Zm257.932,318.521,14.9-6.21,33.538,8.666-6.838,21.765,20.514,15.529s-.627,5.585-1.228,5.585c-.626,0-15.554-2.48-15.554-2.48s-1.227,10.544-1.227,9.944c0-.626,11.8-.626,11.8-.626v18.009s-34.79-6.211-36.017,19.888L3222.1,7834l-6.212-9.943,1.854-9.944-13.024,1.228-6.837-15.5,18.008.6-11.171-10.545-1.252-21.767,18.635,6.838-8.065-13.024ZM3476.3,8362.741l-18.785,8.565-23.919,20.488,17.081,17.084,34.163,1.7,29.054-22.189,35.867-5.134,22.217,18.785,15.354,41-1.7,35.867-11.947,17.081,3.406,11.973-23.92,23.9-22.191,3.431-25.623,29.03-22.216,1.7L3457.51,8540.4l-3.406-20.487,42.7-32.461v-18.785l-10.244-1.7-3.431-11.972,5.135-10.244-29.054-3.406-27.327-6.837-32.46,30.755-32.46-10.268-3.407,15.379-34.164,64.92s-27.326,6.838-27.326,8.541-30.758,37.571-30.758,37.571l-23.919,3.43,17.082-15.378,18.81-34.164,8.541-13.677-15.379-13.649,23.92-3.431,13.651-27.326-14.5,11.947-19.662-26.474,1.7-11.1-17.932-11.1,5.986-14.525-16.231-.852-7.689,6.838-17.082-13.676-14.527-40.15s-14.5-26.475-14.5-27.326-10.27-9.393-10.27-9.393l.877-23.067,9.393-7.69-2.555-28.176,11.1-16.231,5.96-23.043,18.811,4.257,3.406,8.542,6.837,5.985.852,11.948,11.1-5.109,3.431,6.813-15.379,17.958,5.135,13.651,15.354-11.948,5.986,2.556,16.23,3.406,9.393,18.81-6.838,12.8-.852,24.771h-7.689l-.851-15.38-5.135,3.432s-2.555,20.489-.827,20.489c1.7,0,12.8-.853,12.8-.853l-.852,11.1-8.541,5.133s0,11.1-.851,11.1,31.609,19.661,31.609,19.661l1.7-14.527,7.689,7.689,8.54-19.661,5.962,5.985,5.135-5.133,16.23,8.54,17.934,9.393.852,5.984s19.636-1.7,18.785-1.7-22.192-23.069-22.192-23.069l6.813-2.554-2.555-5.136-11.1-4.258-11.121-22.217-.851-22.191,8.541-9.393,3.431-20.514-36.744-37.57h-12.8l-16.23,18.784-4.258-3.405.852-11.972-15.379-13.651-11.1-.876-8.542-16.23,6.813-12.8L3238,8216.693l-5.961,11.121-22.217,4.259-4.283-11.1,11.121-7.689-4.283-16.23-10.244,1.7v-15.38l-5.11-11.945-15.379,12.823-4.283-19.662-25.623,1.7-4.258-40.976,31.584-25.624-16.206,1.7-7.714-7.688-1.7-8.54,6.838-1.705v-27.325l40.149,5.109,11.1-18.786,5.986,4.258-5.135,18.811,23.068,8.541,13.676-11.972,9.392,4.284,10.244-5.136,5.51-.551.476,20.188-15.379,30.757,25.623,30.759s1.7,23.893,0,22.19,13.651,27.327,13.651,27.327l52.974,3.43,11.947,34.164-13.676,5.11,8.541,25.623,25.623,11.973,34.189,41,52.949,15.354,25.623,5.135Zm95.678-187.876,54.653-61.515,49.542-42.7v-54.653l-18.785-5.134-35.892,17.083-3.406,11.971-11.948,1.7-8.54-20.514-66.625-32.46-92.247,3.432-30.757-1.7,1.728-13.675,39.273-11.948,32.461-27.326-30.758,5.109,6.838-15.379-15.379,1.728-11.948-13.675,34.165-1.7,8.541-10.245-1.7-11.971,29.029-18.786,11.972,3.406-3.431,15.38,25.623,8.539-6.838,17.083,22.217-1.7,46.111-6.837,17.107-32.461,5.11-18.785h-11.948l-22.217,15.379-3.406,10.244-32.46-13.65-10.244-13.677,8.542-10.243,10.244,15.353,18.785,5.136,35.866-32.461,23.92-22.192-3.406-30.757,13.65-41,22.217-8.541v-17.082l23.919,3.432,5.11,8.541s18.81,8.542,44.433-13.675l10.245-23.92,46.11,3.407,11.973-10.244h30.732l27.326,30.758,23.92-10.243,13.676-27.328,27.326-6.837-13.676,71.734-13.651,20.513,15.379,6.813-3.432,29.054s54.677,100.787,56.381,100.787,17.082-8.54,17.082-8.54l29.028,11.945,1.7,35.868-11.947,35.894-82-10.271-56.356,47.84-13.675,41s-20.489,29.028-20.489,30.731c0,1.729,10.244,47.84,10.244,47.84l-18.785,8.541,5.11,27.326,25.622,18.784-20.488,52.974-29.029-13.675-58.083-27.327-15.38,37.572-44.408-6.838-1.728,18.809-39.273,25.623,10.244,30.733-47.815,1.728.576-21.64-1.177-23.92-12.5-15.955-7.99-27.326-13.074-5.11Zm-286.986-32.459-25.623-30.759,15.379-30.757,13.074,13.676,13.676,19.361s5.71-3.405,5.71-4.558c0-1.127-5.71-13.676-5.71-13.676l7.99-29.58,6.837-11.422-1.177-17.082-14.778-2.253s-26.224-29.605-25.047-29.605c1.127,0,11.372-19.387,11.372-19.387l17.082,20.489,6.837-5.66-11.371-33.037,12.5-5.711,13.676-15.9,22.767,1.126,18.209,15.956-10.243,23.919,15.954,18.209s18.209,14.778,30.758,1.1l5.11-16.48,30.757,1.7,92.247-3.432,66.625,32.46,8.54,20.514,11.948-1.7,3.406-11.971,35.892-17.083,18.785,5.134v54.653l-49.542,42.7-54.653,61.515,6.838,34.163-37.6-3.432-3.406-6.836-23.92-20.489-46.136,56.355-11.948-10.244,1.7,13.675,18.785,34.165,13.676,37.57,17.933,11.971-.852,12.8-10.244-.852-25.623-5.135-52.949-15.354-34.189-41-25.623-11.973-8.541-25.623,13.676-5.11-11.947-34.164-52.974-3.43s-15.354-29.031-13.651-27.327S3284.988,8142.406,3284.988,8142.406Zm391.181,510.753,3.406-17.082,10.244-6.838-18.785-15.379,46.135-41,23.92-15.379-8.566-15.354-35.867,8.54-34.164,10.246-30.732,5.109-1.728-13.65,44.433-29.055,11.948-13.65,25.623-15.379s1.7-30.758,0-32.46,0-18.786,0-18.786l-17.082-34.162-25.623-6.838-1.7-18.785-41-25.623-13.651-54.653,47.815-1.728-10.244-30.733,39.273-25.623,1.728-18.809,44.408,6.838,15.38-37.572,58.083,27.327,29.029,13.675,37.57,27.326,18.785,5.136,15.379,18.783,15.378-11.971s6.838-32.436,8.541-34.164c1.7-1.7-25.624-30.732-25.624-30.732l11.973-27.352,15.354-3.406,42.729,3.406,29.029,32.46,25.623,47.84,23.92,63.193-3.431,49.544,23.919,20.487,20.488,17.106-30.731,6.813c-.125,0-27.026,45.484-17.083,46.136l-22.216,20.488-13.651,35.867-17.081-5.11-11.973,42.706L3973.4,8579.7l-27.327,3.432-23.919,61.49,23.919,47.814,13.65,8.54,1.7,27.327,20.513,22.216-30.757,32.461-5.109,18.785,30.732,35.866v27.352l-52.949-11.973-22.216,35.866-29.03-11.946-35.867,23.919h-64.921l-20.487-13.676-15.38-20.486-23.919-23.922-32.461,29.03-42.7,15.378h-32.461l-23.895-27.325,6.813-22.217,17.081-25.622h17.082v-22.191L3642,8772.732s8.541-47.841,8.541-49.543,41-42.705,41-42.705v-25.623ZM3562.582,8622.4l23.043-4.258s11.121,17.082,11.973,16.205c.852-.852,17.082-14.5,17.082-14.5l15.354,3.407-22.192,64.922.852,11.094-19.637,13.677-14.527-.85-1.7-18.812-8.54,11.973-23.92-1.7-6.838-9.418-8.541,16.231-12.8-2.556,1.7-14.527s-13.675-10.244-11.972-11.094c1.729-.853,1.729-16.231,1.729-16.231Zm-158.872,137.507-20.513-.852-8.54-22.192,14.527-47.838s24.772-34.165,19.636-60.638l-14.5-11.1,12.8-6.839,5.135,9.393,11.1,4.259,27.326-20.487,41.853,2.555s2.555,62.341,4.283,61.515c1.7-.877-.852,43.556-.852,43.556l6.813-4.282,6.838,13.676-8.541,8.541v16.229l-15.378,16.231-5.11-20.514-9.393,6.838-8.541,20.488h16.23l-5.986,9.393-17.934,4.283-20.513,35.867-26.474,8.541,11.12,35.866s-13.675,2.58-13.675,1.727c0-.875-17.934-29.9-17.934-29.9l6.838-25.623-23.92-4.259,25.623-33.312Zm174.226-25.623,11.121,1.729-11.972,22.192-25.623,6.838,11.121-8.542,3.406-14.527Zm31.609-175.929,13.676-.877,5.11,7.69-3.407,17.958.852,17.933-23.92,2.557,6.838-22.217-14.527-2.555ZM3478.024,9102.4l13.65-35.866s37.57-56.355-11.948-97.357l13.65-25.623,5.135-17.082-18.209-13.1,4.533-19.36,19.387-12.55,26.174,1.179,5.685,9.092,20.514,2.279,12.523-9.117,11.4-25.047,23.895,27.325h32.461l42.7-15.378,32.461-29.03,23.919,23.922,15.38,20.486,20.487,13.676-6.837,29.029,35.866,23.919,5.135,22.218,18.785,30.731,25.623,3.433,20.513,30.731-13.675,35.894,5.135,18.785,51.245,18.786-6.837,15.377,22.191,10.243,20.514,68.328,11.947-17.082,20.513,18.785h17.083l11.947-5.108,20.514,39.271-5.135,47.84-17.082,10.244-1.7,18.785-29.029-6.812s-54.677,32.436-47.839,70.03L3975.1,9411.6l1.7,8.541-17.082,13.652,3.431,10.268,20.489-3.431s-23.92,35.892-25.623,35.892-32.46,1.7-32.46,1.7l-11.948,34.164-6.837,20.488-59.787,34.164h-22.217l-54.652,32.46-22.217,34.163-11.948-3.405,10.244-17.083,3.432-23.919-11.972-10.243s37.595-23.921,37.595-25.623c0-1.728,22.191-47.841,22.191-47.841L3788.9,9493.6l18.786-30.758,8.54-58.084s-29.029-76.869-52.949-83.706l-5.135-29.029,3.432-22.217-32.461-3.406-25.623-20.513,15.379-25.6,30.758-6.838,17.057,10.244,3.431,30.758,15.378,3.405s20.489,8.541,29.029-42.7l13.676-20.514-17.083-30.731-32.46-10.244-20.514-13.677s-61.49,18.785-46.111,51.246l-10.245,25.622-11.972,15.38,1.728,15.379-5.134,15.354-18.785,27.352-3.432,22.19s-5.109,107.626,76.894,133.249l-6.838,30.758-11.972,15.355,6.837,3.429-5.134,13.651-17.057-3.407-6.837,13.677-18.785-6.838-20.513,3.406,1.7-17.082s1.7-44.408-71.734-39.272l-49.543-10.271v11.972l-37.569,1.7,8.54-18.785-18.81-6.838,11.973-10.244-23.919-11.972,15.378-6.838v-15.354l-22.217-10.244L3452.4,9350.11l23.9-11.973,29.054,22.217c10.245,3.405,141.79-119.573-15.378-232.309Zm-43.582-254.5,10.27-6.837,1.7-17.083,23.92,2.556,7.689-8.541,17.933,19.636-11.972,10.27v7.689h11.972l.852,9.393-13.675,10.243-9.392,30.733-7.689-7.665-17.934-11.121v-20.486Zm88.842-82,8.54,13.676L3519,8794.923l-14.5,1.729,1.7-22.217Zm321.149,1217.95s70.031-50.393,48.666-134.1l26.475-48.665,7.689-21.364s-3.407-4.259-4.258-4.259,17.934-27.325,17.934-27.325,11.948-11.974,11.948-10.271,15.379,36.743,15.379,36.743l-6.838,5.111,1.728,46.134s-10.269,18.785-11.12,19.638,1.7,43.556.851,44.408-11.1,9.392-11.1,9.392-2.555,19.663-3.406,21.365-17.933,7.689-17.933,7.689l-17.083,46.111,7.664,31.609-6.812,35.015s-39.3-.851-44.408,22.216l-13.675-12.822,3.406-17.934-.851-27.326Zm-191.333,0,60.638,36.744,30.758,18.786-1.7,40.147-29.906,42.706-30.733,15.353-58.083-1.7-11.972-19.636-3.406-20.514-17.934-37.57-2.554-26.475,24.771-4.284,25.6-43.556Zm-702.336,1431.5c2.254,0,67.15-22.791,67.15-22.791l20.514-25.048,34.163-7.964s19.362,7.964,19.362,4.558c0-3.431,3.406-20.514,3.406-20.514l21.641,1.128s1.152,18.258,1.152,17.081c0-1.126,9.092-13.65,9.092-13.65l1.177-26.175s15.9-11.42,15.9-12.547,39.875-13.65,39.875-13.65l-10.244,29.606,10.244-4.586s1.127,12.55,3.406,12.55c2.3,0,22.793-13.676,22.793-13.676s-7.99-33.036-9.118-33.036,18.209-23.9,18.209-25.022,5.71,31.859,5.71,31.859l12.523,10.244-4.558,28.5s-22.767,15.929-23.92,15.929c-1.127,0-21.64-2.254-21.64-2.254l-39.849,50.068-5.686,13.677-33.036,11.42s-10.244-9.142-10.244-8.015c0,1.177,0,26.225-1.127,26.225-1.152,0-11.421,10.244-11.421,10.244s19.386,21.615,20.513,21.615c1.153,0-37.594,19.361-37.594,19.361l1.177,20.513-36.468-7.964s19.386,19.335,18.209,19.335c-1.127,0-18.209,3.431-18.209,3.431l-21.615-12.522-12.549-42.153-25.046-3.407s-19.361,2.28-20.489,0c-1.152-2.255-29.631-21.64-27.327-22.767,2.255-1.151,25.047-11.4,25.047-11.4l31.86,6.813,23.919-9.066S2948.459,11415.341,2950.764,11415.341Zm-3.432,72.862,37.6-4.534-18.259,15.956s19.386,26.172,21.665,26.172c2.254,0,51.246,14.8,51.246,14.8s-10.245,31.884-11.422,30.758c-1.127-1.151-13.65-17.082-13.65-17.082l-9.092,17.082s-13.65-3.405-13.65-4.584c0-1.128-1.178-17.082-1.178-18.209s-20.488,15.956-20.488,15.956v-39.876s-14.8-7.939-15.93-7.939C2953.018,11516.706,2947.332,11488.2,2947.332,11488.2Zm395.139-85.409,20.513-13.653,28.5-23.917s18.209,10.244,17.057,11.4c-1.152,1.126-31.909,46.687-33.012,47.839-1.152,1.127-18.209,7.964-18.209,7.964l-15.955-11.371Zm-554.586,394.063c1.127-1.18,13.676-17.085,13.676-17.085l-10.245-25.071,1.128-27.353s2.279-39.822,4.583-39.822c2.229,0,43.231-1.152,43.231-1.152L2838,11733.06l33.011,30.759v14.777l-21.615,52.422-37.595,2.255-5.71-18.209S2786.757,11797.981,2787.885,11796.856Zm-157.143,214.073c0-1.127,28.453-10.271,31.859-10.271,3.431,0,36.468-15.9,36.468-15.9l-15.955,17.082-21.615,32.986-14.8,1.177-13.676,18.21s-20.488,3.405-21.641,3.405-11.4-19.359-11.4-19.359l-1.127-27.326S2630.741,12012.08,2630.741,12010.93Zm-101.365,233.461,17.082-15.955,10.244,10.27,7.99,21.615-7.99,4.582-18.209-5.711Zm759.87-3180.415,7.689-17.934,14.527-.852,27.326,26.475v-14.527l6.838-2.555,2.555,30.759-12.8-.877L3320,9096.438l-6.838-21.366Zm13.676,20.489c0,1.729,1.7,16.229,1.7,16.229s-5.986,9.393-6.837,9.393-10.245-2.555-10.245-2.555l2.555-17.083S3302.922,9082.761,3302.922,9084.465Zm-23.92,32.46s-9.393,37.595-10.245,37.595-16.23.852-16.23.852l-4.258,16.23L3238,9192.091l8.541,1.7-14.5,22.216-21.365-6.837-5.135-17.934,7.689,2.555,11.121-29.028,9.393-17.934,25.623-7.689,12.8-22.217Zm557.741-216.079,35.867-23.919,29.03,11.946,22.216-35.866,52.949,11.973v-27.352l-30.732-35.866,5.109-18.785,30.757-32.461-20.513-22.216-1.7-27.327-13.65-8.54-23.919-47.814,23.919-61.49,27.327-3.432,11.946-18.784,11.973-42.706,17.081,5.11,13.651-35.867,22.216-20.488c-9.943-.651,16.957-46.136,17.083-46.136l30.731-6.813,18.81,20.49,27.326-5.137,32.461-15.354,18.785,20.49-6.838,20.487,34.164,11.972s13.675-10.244,15.379-11.972c1.7-1.7,63.192-3.407,63.192-3.407l18.811-37.57,58.059,10.244-3.406,34.163,5.134,22.218-6.837,13.65,1.7,15.379s-13.675-3.433-13.675-5.135-22.192,20.513-22.192,20.513l-17.083,20.489,10.245,3.431-13.651,23.895L4301.36,8578l-13.65,23.917,3.407,25.623,11.973-6.838,8.541,18.785-20.513,17.084-18.785-8.542-3.406,22.216h11.947l5.135,17.082-20.514,6.813-6.838,37.6s-23.919,27.326-49.517,146.9c0,0-37.595,131.546-44.433,164.007,0,0-6.812,59.761,18.811,66.6l-17.108,46.137v30.759l1.729,23.894s-37.6,27.326-39.3,58.083c0,0-1.7,39.3,0,39.3s-15.379,11.947-15.379,11.947l10.27,17.084-23.92,30.756,8.541,18.785s-6.838,5.134-8.541,5.134c-1.729,0-13.676-22.217-13.676-22.217l-18.784,10.244-18.786-8.541,3.406-25.622-27.325-18.785-17.082-5.135,1.7-18.785,17.082-10.244,5.135-47.84-20.514-39.271-11.947,5.108h-17.083l-20.513-18.785-11.947,17.082-20.514-68.328-22.191-10.243,6.837-15.377-51.245-18.786-5.135-18.785,13.675-35.894-20.513-30.731-25.623-3.433-18.785-30.731-5.135-22.218-35.866-23.919,6.837-29.029Zm22.191-717.465-25.622-18.784-5.11-27.326,18.785-8.541s-10.244-46.111-10.244-47.84c0-1.7,20.489-30.731,20.489-30.731l13.675-41,56.356-47.84,82,10.271,11.947-35.894-1.7-35.868,34.165,5.136,18.785,15.353h73.462l23.919-23.895,25.623-34.163,30.757-3.432,5.109-11.947,32.461,8.54,32.46,32.462,17.081,30.732,3.407,30.757-5.11,17.081,3.407,22.193-17.083,32.46,1.7,13.676-15.354-8.54-27.351,3.406,13.675,17.081v8.542l-29.054,3.43v11.948s-22.191,5.135-23.894,3.431l-10.269-10.269s-32.437-6.812-17.083,34.164c0,0-5.109,44.435,32.461,37.6l18.784,5.134,47.84-20.514,56.38,23.92,56.355-15.378-18.785,32.461,3.431,11.946-22.216,11.972-1.7,18.785-10.244,15.38s23.895,10.243,23.895,8.541c0-1.728,22.216-13.676,22.216-13.676l10.244,6.838-29.029,27.327,39.274,8.54,1.728-13.65,6.813,11.946h18.811c-1.728,0,18.785-23.918,18.785-23.918s0,35.867-1.729,35.867c-1.7,0-42.68,3.43-42.68,3.43l-6.837,17.081s-10.27,23.921-11.973,23.921,18.81,22.191,18.81,22.191l15.354-3.405,12.823,14.5,8.541-12.8,4.258,13.675,22.217-6.838,16.23,4.258s2.555,6.838,1.7,6.838-23.92,3.407-23.92,3.407v5.985l-11.947-4.258-4.284,11.1-12.8-6.839v20.513l12.8-5.134,5.136,5.986L4444,8395.2l-12.8,12.824,5.109,10.244,5.135-6.838,5.986,8.541,1.7-10.244,14.5,2.579-.851,5.962s-17.083,21.363-17.934,21.363-14.5-5.984-14.5-5.984v10.244l-25.623-5.136-3.432,20.515-7.689-11.974-1.7,23.92-11.948,9.418-5.134-22.218,3.406-34.163-58.059-10.244-18.811,37.57s-61.489,1.7-63.192,3.407c-1.7,1.728-15.379,11.972-15.379,11.972l-34.164-11.972,6.838-20.487-18.785-20.49-32.461,15.354-27.326,5.137-18.81-20.49-20.488-17.106-23.919-20.487,3.431-49.544-23.92-63.193-25.623-47.84-29.029-32.46-42.729-3.406-15.354,3.406-11.973,27.352s27.327,29.03,25.624,30.732c-1.7,1.729-8.541,34.164-8.541,34.164l-15.378,11.971-15.379-18.783-18.785-5.136-37.57-27.326ZM5003.622,7525.9l3.081-9.944,23.595,3.106,4.984,11.8,15.529-1.878-1.854,9.317-7.464,1.879-28.579,31.684-10.569,1.228-.6-30.457,10.545,3.106V7532.09Zm27.326-33.537,18.609-2.505,2.506,11.772,11.8-.6-11.2,14.928-8.04-7.488-9.342,6.236-8.691-9.318Zm-57.157-23.62,8.69-13.048,18.636-6.837,8.691,3.732,10.544,21.716,3.106,22.993-15.5,9.342-14.927-2.506-21.115,13.676-6.837-11.8,6.211-10.544,13.05,1.226,3.131-21.113Zm-183.868,886.607-11.371,3.407-9.142-4.535,3.431-11.4-35.291,4.559-13.676,11.372,15.93,5.71-30.757,2.279s-2.255-20.489-1.127-20.489,15.955-10.244,15.955-10.244l-13.65-9.142,7.964-11.371,9.117,5.686,6.813-3.432-5.685-13.676-13.675-11.37-1.127-15.956-14.829,4.585-18.208-11.423-3.407,17.108-6.838,12.522-11.372-7.964,10.245-7.991,1.127-19.335,10.245-6.838,17.081,13.674,15.956-6.836-10.244-14.828,9.092-10.244L4695.4,8222.1l27.325,3.408V8218.7l-33.011-13.677,3.431-17.081-6.837-12.5-13.676,13.65-6.837-17.082,17.083-9.118,17.082,2.305,5.687,20.488,23.919,6.837-2.255-26.224,12.5-7.938,1.152-21.667-26.2-9.092,4.533-15.955L4736.4,8099.1s-12.523-3.408-12.523-4.534-33.036,4.534-33.036,4.534l-11.372,4.583-26.2-12.524,23.919-18.208,3.407-21.665-17.083,13.65-2.279-6.813,3.406-33.011,12.549-20.49-20.513-5.71-12.523-9.118-14.8,11.4-9.117-3.407-12.5,10.245-23.919,15.93-15.955,4.558s-27.352,17.082-27.352,15.931c0-1.128-3.407,11.421-3.407,11.421l-10.244,7.939-14.8-2.279,7.964-9.091-1.126-6.839-14.827,9.092-20.489,14.829-15.93,5.685s23.92-23.919,23.92-25.046,29.58-22.793,29.58-22.793l6.839,7.99,2.279-6.839s9.142,5.686,10.244,5.686c1.152,0,4.559-6.837,4.559-6.837l-12.5-7.965s10.245-5.71,9.092-5.71,7.99,4.582,9.118,5.71-1.128-11.372-1.128-11.372l13.651-4.583,10.269,5.711,11.371-12.55s4.534,5.711,4.534,6.839c0,1.176,10.244-2.254,10.244-2.254l-1.127-9.117,14.8-5.712c14.827-6.837,66.073-43.255,66.073-43.255,19.335-43.282,66.049-60.363,66.049-60.363,78.571-36.444,71.733-71.735,71.733-71.735l13.676-5.71-1.127-20.487-3.432-20.514,11.371-29.582-4.533-12.548,3.431-15.954,17.058,1.151,7.964-10.244,6.838-19.362,1.126-34.163,14.829-6.839,31.883-31.885,33.037-5.685,1.128-25.047-10.269-6.838,21.64-15.956,15.955,19.362s12.548,23.92,11.372,23.92c-1.127,0,19.386,12.522,19.386,12.522l15.955,43.282,18.208,26.2,27.325,12.5,23.92-9.092,33.037-6.838,15.9-15.954,22.793-7.94,14.8,6.837,26.2-4.583,58.084,11.4,22.792-21.639,26.149-26.176,12.548,6.239,18.784,1.7,13.1,11.4-4.559,17.659,5.134,41-14.251,30.157-18.208-1.127-47.84,3.431-23.894,29.03h-71.76l-39.3,1.7-18.785,27.324-13.651,5.135-15.379-11.946-42.7,88.816-20.513,11.972v20.488l-13.65,20.488,6.837,25.623-27.351,39.3-27.327,10.243-66.625-3.406-13.649,11.947,25.622,56.379,22.192,23.921-13.65,22.19-37.595,17.082L4871.9,8140.7l-1.7,27.326-13.65,3.408-29.055,42.7-32.46-34.164-10.244,6.839,17.082,42.7,11.972,5.11,8.541,99.085L4807,8343.957l1.7,11.972Zm573.947-616.1,34.164,10.244,37.6-1.7,32.46,30.758,25.623-6.839,5.11-15.377,13.675-6.839,30.733,13.675,18.81,66.624-8.541,17.083,61.489,5.11,10.244,25.647-18.786,15.354,25.623,37.595,58.66,12.523-12.548,19.913-22.191,35.891-1.7,11.947-17.082,30.758,6.813,6.837-11.948,20.489-10.243,71.759-20.514-30.757h-17.082l-1.7-23.919-23.92-22.217-11.948-3.405-1.7-22.217s-59.786-27.327-51.246-49.542l-49.543-18.785-42.7-3.408-11.973-15.377s-52.949-5.109-88.816,17.082l-8.54,13.675-56.381,27.327-24.771,5.134-24.746,13.65,5.109,4.283,25.623-6.839,19.637-7.688,1.729,9.393-27.351,11.947-29.88.875-12.825,10.246-13.65,8.54-11.121-3.43-13.649,8.54,3.4,4.284v13.649l-16.23,5.135-.851,7.69,17.082,4.283-13.649,10.243,9.393,9.393,1.7,41s-11.1,13.651-14.527,13.651c-3.405,0-10.244,6.838-10.244,6.838l2.555,18.786-12.8-2.557-16.229,16.231-12.825,30.758-13.65,5.11-8.541,41.853s-46.136-40.15-56.38,48.69l7.689,23.068-.852,22.192-10.244,8.54s-15.379.853-15.379,3.432c0,2.554-2.555,33.286-2.555,33.286l19.637,12.825,14.527,23.066,1.7,22.192-29.029-3.406,2.555-11.973-17.083-17.934-36.743-7.664-12.8,1.7-7.689,13.652-18.786,7.689-22.216-5.987-20.488-21.339-11.1-1.705-23.919,9.393-1.729,10.246-10.244-3.407,1.7-17.083,17.958-28.2-3.431-9.392,18.785-22.193,10.269,1.7-.876-23.918-29.029-1.7-1.7-11.972,15.379-10.245-8.541-99.085-11.972-5.11-17.082-42.7,10.244-6.839,32.46,34.164,29.055-42.7,13.65-3.408,1.7-27.326,15.379-18.811,37.595-17.082,13.65-22.19-22.192-23.921-25.622-56.379,13.649-11.947,66.625,3.406,27.327-10.243,27.351-39.3-6.837-25.623,13.65-20.488v-20.488l20.513-11.972,42.7-88.816,15.379,11.946,13.651-5.135,18.785-27.324,39.3-1.7h71.76l23.894-29.03,47.84-3.431,18.208,1.127Zm480.9-253.674,6.637-8.189,6.387,3.656,1.127,8.892,9.117.677-2.73,22.367-17.808-6.388Zm-468.925,142.642,1.7-13.651,30.757-22.217,22.192,5.135,3.431-15.378,61.49-13.675,18.785,27.326,22.216-10.244,13.651-18.786,34.164-1.7,13.676-8.542-1.7-17.083,73.437-18.81,49.542,6.839,27.326,8.54,6.838-5.11,8.541-23.067,13.851.451s14.5-20.839,50.794-10.871l3.632-10.9,9.969,1.8,1.8,10.9-1.8,13.6,29.931,14.5-18.158,36.268-6.337,29.931s1.8,41.7.927,41.7c-.927,0,7.238,14.5,7.238,14.5l10.9.928-1.854-11.8,7.289,1.8s1.8,28.129,30.807,38.1l.927,24.471-14.526,18.133-19.012,8.166,3.607,12.723h25.372c.928,0,11.8-1.827,11.8-1.827s.927,9.066.927,8.14c0-.9-16.331,3.657-15.454,3.657.926,0,.926,4.508.926,4.508l18.159-.9s7.239-7.264,8.14-7.264,6.337,5.46,6.337,5.46l-53.5,31.734h-14.5c.9,0-9.067,12.675-9.067,12.675l-16.305-1.8-2.73,20.864-13.6,2.705-2.73,13.6-59.836,34.465-16.331,1.828-19.938,23.569,13.6,1.8s-12.723,12.725-11.8,12.725.926,12.673.926,12.673l-24.5.9-7.038,21.39-58.66-12.523-25.623-37.595,18.786-15.354-10.244-25.647-61.489-5.11,8.541-17.083-18.81-66.624L5512.5,7749.5l-13.675,6.839-5.11,15.377-25.623,6.839-32.46-30.758-37.6,1.7-34.164-10.244-19.362-15.955,14.251-30.157-5.134-41,4.559-17.659Zm-44.408-35.868,1.7-42.7-1.7-41-32.461-27.327,1.7-11.947,29.029,18.785,18.811-5.135,5.109,8.542,37.6-35.867,49.517-27.327,25.623-15.378,5.135-18.785,20.513-5.135,40.977,17.082h42.7l-1.7-17.082,15.378,8.542,8.542-22.216,13.65,15.378-3.406,29.054,11.973,8.541,1.7-11.972,17.082-10.245,15.378,11.946,6.813-3.4,1.729,20.514-3.431,11.946,58.083,34.164,11.972-11.947,32.436,38.422-8.541,23.067-6.838,5.11-27.326-8.54-49.542-6.839L5596.2,7539.4l1.7,17.083-13.676,8.542-34.164,1.7-13.651,18.786-22.216,10.244-18.785-27.326-61.49,13.675-3.431,15.378-22.192-5.135-30.757,22.217-1.7,13.651-17.658,6.262-13.1-11.4-18.784-1.7-12.548-6.239Zm283.379-301.888,8.09,8.691,22.993-1.227,21.741-18.009,21.114,3.081,8.716-9.292,26.675-.626-15.5,10.57,12.423,6.187-2.48,18.636-8.115,18.007,5.61,3.107-9.317,25.5-8.691-11.2-11.17.6-5.611,4.983-4.334-3.1,3.106-7.438,9.292-1.278h8.115l-2.5-6.838-8.064-4.334-8.091,4.986-9.343,1.853-10.544,34.791-9.943,1.853,7.489-31.659-7.489-11.824L5631.6,7324l-13.676,12.423-11.17,1.228-1.829-8.065,9.292-16.155.6-9.292-11.171-3.105Zm-1064.037,402.1,31.859-28.478,23.92,12.548,11.421,19.336,14.777,12.549,20.513-14.8,19.36-3.407,3.432-14.828,14.778,1.152,7.963,4.533,11.422-3.406-13.676,13.65-14.828,1.153-2.254,10.244-21.665-1.126-5.661,20.487,4.533,21.642-12.523-10.27-13.676,1.176,1.153-13.675-25.072-9.117-6.838,12.548L4574.7,7725.6l-5.71,11.371-4.559-13.675-13.65-10.245Zm-51.822-342.842-3.131,58.684,27.4,18.787s14.878,64.17,14.077,64.17c-.777,0,24.271,3.13,24.271,3.13s1.577,14.076,2.354,14.877c.776.777,19.887-8.141,19.887-8.141l-2.3,21.091,6.837,20.487-10.244,13.677-13.675,13.65,5.134,73.464-22.216,23.918-25.623,6.837,8.541,39.274s8.541,25.623,11.972,25.623c3.406,0-18.785,8.541-20.513,8.541-1.7,0-5.11-22.192-5.11-22.192s-30.757-30.757-29.054-29.053c1.728,1.7-15.379,10.268-15.379,10.268L4453.4,7693.14l-39.273-23.921-27.327-20.488-17.106-11.972-13.651,11.972v13.652l-23.919-13.652,32.46-23.917-39.3-25.624-71.734,10.243-23.919,41-32.46-11.973-1.7-10.245-25.623-8.541,8.541,15.379L4154.461,7647s-25.622-35.868-27.326-37.571-20.489,58.084-20.489,58.084l-39.3,25.623-35.867-13.675L4016.1,7689.71l-10.245-15.355,5.11-13.675-39.273-41s-27.351-8.542-29.054-8.542-30.732,46.113-30.732,46.113l-27.351,22.216-10.244,18.784-17.082-22.19h13.675l3.407-73.463-25.623-27.325,3.43-20.514,30.733-34.164s-3.406-34.163-3.406-35.867-22.216-35.866-22.216-35.866l11.972-44.408,18.785,6.837,49.542-15.378-10.269-15.38s-25.623-5.134-29.029-6.837c-3.432-1.7,11.948-20.488,11.948-20.488s23.92,18.786,22.216,17.081,32.46-8.54,32.46-8.54l27.326,8.54,15.378,23.921,29.029-3.432,56.381-8.541,11.947-17.082s30.757-3.406,30.757-1.7,30.732-49.543,30.732-49.543l-1.7-10.245s5.135-10.244,5.135-11.946c0-1.729,18.785-1.729,18.785-1.729l30.757-34.164s-3.431-13.65-3.431-15.354c0-1.729,10.27-10.27,10.27-10.27l13.65-1.7v-15.379l15.378-11.946,10.245,15.377,23.344-18.208,5.711,14.777-2.3,15.956,13.676,9.091v27.327l-7.966,12.548-1.127,18.21-18.258,14.827,15.979,18.208v21.641l10.244,7.99,17.082-4.583,25.047,4.583-14.8,35.292,7.965,27.326,22.792,19.36,31.859-3.4,20.513-20.514,21.666,20.514,3.406-18.234,14.8-18.21,7.94,1.1-11.371-38.7,19.386-26.2,19.336-5.686Zm663.363-374.047v18.81l-8.541,8.541-3.432,52.949,39.3,49.543-3.406,49.517,20.488,42.729-10.244,37.57,37.57,49.543-3.406,54.652-5.71,11.4-4.534,12.524-13.676-11.372v10.245l-9.117,5.661v21.665c0,1.127-19.336,11.4-19.336,11.4l-9.142-9.141-25.022-3.406-11.422,5.71-3.406-10.269,9.117-10.245-2.279-14.778-10.27-6.837-6.837,12.5-63.744,26.2-17.083-9.118-4.558,31.91-22.768,10.245-47.839-3.407-3.406,10.244-39.875,3.407v10.27h-14.777v-8.015l-19.386-1.1s-7.965,20.488-6.838,22.768c1.127,2.253-18.208-1.152-18.208-1.152l1.127,13.65,12.549,3.432-14.829,11.4-30.757-1.152v11.421l-28.453,13.65-22.792-17.081s-13.651,19.337-13.651,20.513c0,1.126-15.93-1.176-15.93-1.176l-5.71-18.21h9.117l5.685-9.116-21.64-7.966-4.534-26.2-7.99-19.336-14.8-22.792-13.651,5.71s-33.037-9.116-35.292-9.116c-2.3,0-31.909,11.37-31.909,11.37V7432.9s-48.967,39.875-50.094,41c-1.152,1.152,0,14.828,0,14.828l6.838,12.5s-19.111,8.918-19.887,8.141c-.777-.8-2.354-14.877-2.354-14.877s-25.047-3.13-24.271-3.13c.8,0-14.077-64.17-14.077-64.17l-27.4-18.787,3.131-58.684-8.541-18.159-3.432-17.082-10.244-2.278,9.117-17.082,15.955-9.118,10.244-11.372,11.4-20.513-5.71-15.956,25.072-50.068-15.956-9.141,14.8-19.362,33.037-10.245,14.778-38.722,26.2,15.955,9.117-12.523,11.4,4.534,26.2-3.407v9.118l9.092,1.126,13.651-12.5-2.254-8.017,10.268-3.406,9.093,10.244,42.153,2.305,40.978-27.352,30.757,2.305,2.255-9.118,12.548,3.407,1.127-22.793-33.012-13.651,30.758-36.418h27.326l21.615-35.34,55.8-62.617,15.955,17.082,30.731-1.128,9.143-10.243,32.987,19.336,2.3-9.093,37.571,1.128,13.676,6.837,46.111-5.134,11.947,8.541Zm-251.9,540.283,13.651,13.025-19.863,13.65h-13.675l-2.455-11.171Zm-44.734,9.293-10.544,11.2-3.105-6.812-21.741-7.489-3.732-9.293,6.236-4.983,19.236,6.837,9.317.6Zm4.358,1.877,5.585-8.715,6.211,10.569-.6,5.586-10.57,6.236Zm40.375-42.229,24.221-18.033,4.358,9.943,14.9-19.887,8.065,2.505-13.024,27.326.626,16.781-29.831,3.708-11.772-5.611-1.276-11.772Zm118.021-20.488,9.943-22.993,26.074-3.733,7.489,9.293-26.725,26.724-10.545,1.88Zm44.733-55.329,13.05,1.277,21.115,26.075-9.944,6.212,4.959,5.609-9.292,14.277-13.675-14.9-11.822-18.659Zm-350.455,134.3,1.153-18.233,7.964-11.373,20.513,7.965,2.28,10.245-18.234,5.71,1.152,7.939h14.8L4751.2,7567.3l17.082-6.838,5.686,12.5-10.245-1.1-22.768,45.536-5.71-4.559,11.4-22.767-6.838-12.524-31.884,9.092L4695.4,7576.4l34.164-21.641Zm-38.7-14.828-3.431-15.9-17.083-17.082-2.279-25.1,20.488,4.584,14.828,21.64,12.5,4.533,2.3-13.65-7.965-13.675-7.99,1.152-3.432-17.082,25.072-2.279,2.254,36.443-1.1,14.8L4707.92,7522.9l10.269,14.8v7.939l-30.757,10.27-1.127-11.4,12.5-15.956-5.661-11.372Zm-79.724-39.824-5.71-12.549,10.27-10.243,2.279-9.117,15.93-7.964,6.812-7.967,11.422,11.373-31.909,35.315Zm542.639-560.872,1.7-17.082,15.378,6.813,49.543-15.354-13.675-34.164,8.54-11.972,23.92,11.972,39.274-10.245-10.245-32.459,32.461-10.269,17.082-63.195,42.705,18.785,11.973-5.108,51.246,22.191L5432.2,6815.1l11.971-1.7,11.948-27.327,34.164-8.541,3.431-17.082,39.274-11.947-5.11,27.327,52.949,3.4,18.786,22.218,22.216,63.194,46.111-27.328,27.325,8.542,42.705-32.46,2.581,12.824-12.824,9.392,3.431,17.082,13.65,8.542,1.7,23.918-23.894-3.433-10.27,41-13.65,1.7-1.7,25.624-29.054,13.674,8.541,18.786-1.7,22.216-13.675,15.38,15.379,25.623-13.65,47.814,22.191,8.541,15.378,35.891-2.554,23.042-19.662-2.555-22.191,8.541-8.542-8.541h-13.675v17.082l20.513,8.541-11.972,11.947-22.191,17.083,3.405,13.675-15.378,10.245-20.488,13.676-22.217,3.406-3.406-11.947-30.758-5.135-34.164,8.541,6.838,8.542,34.163-3.406,10.244,10.245-8.541,20.486-11.948,1.7-1.7,13.677-11.972-10.245-8.542,10.245-1.7,18.784-8.542,13.674-10.243,18.785-27.327-11.947h-30.757V7351.5l-18.786,1.7-18.81-46.137-1.7,23.92-17.083-3.406-3.406-41-15.378,13.676-41,29.028-52.948,13.676-27.326-3.432,3.406-54.652-37.57-49.543,10.244-37.57-20.488-42.729,3.406-49.517-39.3-49.543,3.432-52.949,8.541-8.541v-18.81l-27.351-35.867Zm-16.306-307.977-4.182,15.855c39.273,66.624,88.816,37.6,88.816,37.6l17.081-22.216h15.378l22.192-13.651,39.3-8.542c56.381,35.868,174.225,13.651,174.225,13.651l46.136-11.947,17.082,6.838c128.115-13.675,128.115-34.164,128.115-34.164l13.676-18.81,20.488,1.729,19.636-7.689,16.23,28.178,15.38,82,22.215,10.244-5.135,27.325,23.92,17.083v49.542l-41,35.867-19.637-2.553-2.581-12.824-42.705,32.46-27.325-8.542-46.111,27.328-22.216-63.194-18.786-22.218-52.949-3.4,5.11-27.327-39.274,11.947-3.431,17.082-34.164,8.541-11.948,27.327-11.971,1.7-15.354-27.327-51.246-22.191-11.973,5.108-42.705-18.785-17.082,63.195-32.461,10.269,10.245,32.459-39.274,10.245-23.92-11.972-8.54,11.972,13.675,34.164-49.543,15.354-15.378-6.812-1.7,17.082-11.973,11.947-11.947-8.541-46.111,5.134-13.676-6.837,10.244-41,21.64-11.371-5.685-29.629-13.651-3.407,12.5-17.082,68.328-19.361-3.431-29.6-5.661-29.606,15.93-11.4-2.254-34.164,7.239-.751-2.806-7.941-9.943-4.007-12.373-7.138-26.275-27.876-9.692-12.65-6.537-12.522,9.943-9.519H5123.5Zm-104.971,308.551-.075.3-2.229,8.792-32.987-19.336-9.143,10.243-30.731,1.128-15.955-17.082-55.8,62.617-21.615,35.34H4829.8l-30.758,36.418,33.012,13.651-1.127,22.793-12.548-3.407-2.255,9.118-30.757-2.305-40.978,27.352-42.153-2.305-9.093-10.244-10.268,3.406,2.254,8.017-13.651,12.5-9.092-1.126v-9.118l-26.2,3.407-11.4-4.534-9.117,12.523-26.2-15.955-14.778,38.722-33.037,10.245-14.8,19.362,15.956,9.141-25.072,50.068,5.71,15.956-11.4,20.513L4501.811,7286l-15.955,9.118-9.117,17.082,10.244,2.278,3.432,17.082-19.336,5.686-19.386,26.2,11.371,38.7-7.94-1.1-14.8,18.21-3.406,18.234-21.666-20.514-20.513,20.514-31.859,3.4-22.792-19.36-7.965-27.326,14.8-35.292-25.047-4.583-17.082,4.583-10.244-7.99v-21.641l-15.979-18.208,18.258-14.827,1.127-18.21,7.966-12.548v-27.327l-13.676-9.091,2.3-15.956-5.711-14.777,35.316-3.432s68.327-7.991,61.49-51.245l39.849-21.641,10.245-19.361,14.828-9.117,10.244-26.2,11.372-4.534,17.107,2.279,6.813-28.5,22.792-25.021,66.049-51.246s35.291-15.954,36.443-15.954c1.127,0,11.372-27.353,11.372-27.353l34.164-23.92,3.431-27.325,89.943-62.616s67.2-13.676,54.677-87.689c0,0-25.046-6.837-25.046-7.965s-1.127-11.371,0-11.371,37.57-10.244,37.57-10.244l31.884,2.229,2.28-5.661-18.209-12.548,38.723-5.687,29.6-19.336,61.516-3.431,5.66-22.793,26.2,6.839,14.8-14.778-4.559-10.27,25.047-3.405s-2.254-14.828,0-14.828c2.3,0,18.259,7.989,18.259,7.989l9.092,22.767,31.884-7.964,29.605-4.559,34.164,4.559,1.153,7.964-26.2,2.28-7.765,4.633-7.138.652h-12.749l-9.943,9.519-25.172-.327s-10.72,14.353-11.146,14.353c-.4,0,5.986,21.916,5.986,21.916l-13.525,19.085,17.483,2.78,15.553,8.367,21.917-11.147,38.221,15.5.776,5.61,10.294-3.256,2.254,34.164-15.93,11.4,5.661,29.606,3.431,29.6-68.328,19.361-12.5,17.082,13.651,3.407,5.685,29.629-21.64,11.371-10.244,41Zm-7.964-251.694-18.259-11.371h-34.165l-17.082,12.5-28.454,3.432,18.208,34.164,6.838-9.092,52.4-12.548h12.524l5.685-7.94Zm31.809-434.612,16.155,8.994-2.7,15.278-7.163,11.7-26.951,19.737,2.68-36.844Zm-73.638,41.329-11.671-.9.876-17.959,13.475-19.762,13.476-.877s8.065-12.574,9.894-12.574c1.753,0,15.253-.926,15.253-.926l4.484,5.386s8.992-8.04,8.992-8.967c0-.9,7.163,2.705,7.163,2.705l-3.582,17.081-18.86,2.656,6.287,10.8-2.706,15.277-17.031.877-3.607-18.86-12.573,4.483,1.778,19.788,1.829,9.869Zm19.762,19.762h19.737l.877,6.286,14.4,4.484-1.8,8.992-29.63-3.582S4994.73,6303.22,4995.632,6303.22Zm148.152-207.463c0,.927,46.712,37.721,46.712,37.721s-3.582,52.1-2.706,52.1c.927,0-13.449,6.286-13.449,6.286l.876,17.082-28.729-6.337-14.352,8.115-15.279-2.706,2.706-11.7-22.467-16.156-5.36-30.507,6.286-25.171,19.737-21.516S5143.785,6094.855,5143.785,6095.756Zm616.4,733.019,41-35.867v-49.542l-23.92-17.083,5.135-27.325-22.215-10.244-15.38-82-16.23-28.178,70.908-35.041,58.084,11.973,20.487-13.676h68.328l42.7,6.838,3.406,23.92-10.243,18.785,32.46,30.757,6.838,17.083,59.787-13.675-1.729,32.46,5.134,47.84-23.92,20.487-29.028-18.785-15.379,37.569,8.542,34.164,73.462,42.707,15.378-13.651,29.029-1.7,23.92,44.406-3.407,17.083,13.651,6.837,10.245-13.674,27.325,5.133-1.7,17.057,52.974,15.379,6.812,23.918-13.649,28.2-13.676-4.283-8.541,17.081,13.676,3.432-5.135,30.733,59.787,30.757-20.487,5.109,3.406,15.378h11.971l-18.809,52.95,25.622,52.948-27.325,31.608-42.706-17.932-20.488,10.244-6.838,11.972-18.785-6.839-18.811,6.839,11.973,20.487-20.489-13.65-11.972,17.057-63.194,10.269-22.215-11.972-23.92,3.432-126.411-88.841-134.953,5.135-10.243-32.461-6.813,32.461-13.675,27.327-52.1.85,2.554-23.042-15.378-35.891-22.191-8.541,13.65-47.814-15.379-25.623,13.675-15.38,1.7-22.216-8.541-18.786,29.054-13.674,1.7-25.624,13.65-1.7,10.27-41,23.894,3.433-1.7-23.918-13.65-8.542-3.431-17.082,12.824-9.392Zm127.938,649.914-6.187-27.952,10.571-22.993,15.5,4.334,13.675-8.065,6.212-32.912,21.741-27.352,1.853-14.9,13.05-14.277,14.9-.626,8.09-27.352,13.024-15.5h9.943l8.718-8.716h8.064l31.058-42.83,18.66,21.715-16.781,20.515-1.879,19.861-21.74,25.473-18.008,22.366-11.2,23.62-1.228,36.644,30.432,44.733,1.253,9.293s-60.238,26.1-80.125,45.985c0,0-21.766,0-36.042,10.546l-3.1-12.423-4.96-6.237h-11.17v-5.56l8.666-11.822v-9.943l-7.438,6.235Zm384.517-555.963-6.812-23.918-52.974-15.379,1.7-17.057-27.325-5.133-10.245,13.674-13.651-6.837,3.407-17.083-23.92-44.406-29.029,1.7-15.378,13.651-73.462-42.707-8.542-34.164,15.379-37.569,29.028,18.785,23.92-20.487-5.134-47.84,1.729-32.46-59.787,13.675-6.838-17.083-32.46-30.757,10.243-18.785-3.406-23.92,32.311,6.011,21.566-9.843,10.444-20.939,27.1,1.227,26.475-23.393-1.227-8.615,76.969-20.94,32.009,28.327,11.07,24.621-1.829,20.339h-6.161l-.626-10.5-14.125,8.041-7.414,26.473-33.863,41.854,2.455,11.672,9.267,3.105.6-13.551,23.393-25.872-1.252,15.428,10.494,4.283,1.228,9.242-17.858-1.227v10.443l36.919,16.632,3.1-7.363,8.617.6.626,20.938-11.723,16.006,3.732,12.949,20.89-20.964,19.71,3.707,2.48-20.339-22.793,3.083-7.389-28.931,41.9-12.924,22.116-25.248-3.683,19.111,13.576,12.047-18.21,21.616,17.057,13.676-7.939,27.325,32.986,29.63v25.047l53.551,7.964,42.128,18.235,10.244-7.99,21.641,3.407,26.774,22.793,10.245,22.215,15.378-3.43-17.082,41,15.354,42.7-23.9,78.573,30.733,59.786-1.7,35.867,17.082,11.972,15.379-3.431,54.652,42.729-11.948,10.245,8.542,8.541,14.527,33.312-10.6,20.138-23.543-2.581-3.682-19.886-32.936-5.786-16.757,29.329-39.247-4.734-31.359-9.943-17.833-32.16,9.393-23.069-37.595-59.785-11.947-18.785-22.217-1.729,3.431-27.326H6364.89l-6.838,18.785,11.973,1.729v15.379l-13.676,1.7-32.461-22.217-1.7-27.326-56.356-17.082-6.837-19.637Zm34.164,232.31-25.622-52.948,18.809-52.95h-11.971l-3.406-15.378,20.487-5.109-59.787-30.757,5.135-30.733-13.676-3.432,8.541-17.081,13.676,4.283,6.837,19.637,56.356,17.082,1.7,27.326,32.461,22.217,13.676-1.7v-15.379l-11.973-1.729,6.838-18.785h23.919l-3.431,27.326,22.217,1.729,11.947,18.785,37.595,59.785-9.393,23.069-12.8,19.637-1.728,17.081-11.947,20.489-11.974,58.083h13.676l1.7,13.676-15.38,17.082,3.432,11.947,11.948,10.245,3.431,49.542-10.27,15.38,5.135,6.836-1.7,10.245-11.122,11.947-26.475-3.406-51.246,30.757-8.541-11.972-52.948,15.379h-22.216l-34.165,20.488-1.7-13.649-41,10.243-1.7,13.675-51.246,6.813-5.961-22.191,21.34-10.245,41-15.378,52.948-51.246,61.491-70.03,17.081-35.893-1.7-29.03-30.733-29.029,5.111-11.121Zm278.445,700.382,1.7,15.379-27.327,6.838,8.541,15.354-8.541,15.378,13.676,10.244-87.138,56.379-20.488,11.948-64.922-15.353-64.9-17.108-63.219-35.866-11.947-47.815-20.513,1.7-3.407-10.245,25.624-8.54,6.838-25.624-104.195-61.514-22.217-39.275-15.379-10.243-32.46-1.729,5.134-25.621,20.489-18.785-20.489-3.408L6115.5,7645.3l34.164-27.327-34.164-23.919,5.109-27.326,8.565-13.676,27.326-6.812v-23.92l-15.378-3.431-11.948-34.165-32.459-17.082,16.229-29.029,5.961,22.191,51.246-6.813,1.7-13.675,41-10.243,1.7,13.649,34.165-20.488h22.216l52.948-15.379,8.541,11.972,51.246-30.757,26.475,3.406,2.58,15.379,6.813,46.136,25.647,11.948,6.813,27.325-10.245,11.972-23.92-10.269-68.327,95.68,30.757,25.623-3.406,17.082,13.649,5.109,15.379,23.919-22.216,39.3,15.379,23.918,27.326-17.081,39.3,6.811,25.623-10.244,23.067,10.394,7.59,11.774-.426,23.167-.6,19.587,14.778,4.534,26.2,33.038,21.641,12.547,18.785,2.83Zm-163.98-474.887,1.7-10.245-5.135-6.836,10.27-15.38-3.431-49.542-11.948-10.245-3.432-11.947,15.38-17.082-1.7-13.676H6409.3l11.974-58.083,11.947-20.489,1.728-17.081,12.8-19.637,17.833,32.16,31.359,9.943,39.247,4.734,16.757-29.329,32.936,5.786,3.682,19.886,23.543,2.581,10.6-20.138,16.229,40.124-20.513,58.084,34.165,27.325,17.081-10.243,13.676,8.541,3.406,22.216,22.216-8.541,3.407,22.192-10.245,29.054-52.948,11.947-15.378,30.758,30.757,44.408-18.812,10.245,20.513,37.595-25.623,35.867,13.651,13.65-3.407,54.678-3.431,41.579-37.571-5.712-33.037,37.571h-26.174l-10.244,18.233-4.584,26.2-12.774-6.839-.4,35.39-9.293-14.752-23.067-10.394-25.623,10.244-39.3-6.811-27.326,17.081-15.379-23.918,22.216-39.3-15.379-23.919-13.649-5.109,3.406-17.082-30.757-25.623,68.327-95.68,23.92,10.269L6452,7493.266l-6.813-27.325-25.647-11.948-6.813-46.136-2.58-15.379Zm71.156-655.949,3.408-15.955,30.757,6.837,23.919-19.336-1.127-31.91,14.778-25.046,22.793,17.081L6653,6622.089l3.407-22.792,30.757,5.71,2.28-15.954-18.209-50.095,5.686-17.08,13.649-4.584,19.386,10.242,35.293,18.259,4.808,24.272,15.68.775,1.176,46.688,15.906,7.965,12.546-12.525,13.651,26.2,18.208,88.816-10.244,10.244-7.964,46.713-7.338,35.866,15.3,16.5-2.831,23.922,25.624,15.377-10.244,34.164v29.029l-10.245,5.134-1.728,42.705L6790.234,7044l-56.356,29.054-44.433-18.784-18.786,3.406-15.378-8.541-13.651,11.948,20.489,8.565-18.785,18.786,3.405,11.947-37.569,22.217-8.542-8.541,11.948-10.245-54.652-42.729-15.379,3.431-17.082-11.972,1.7-35.867-30.733-59.786,23.9-78.573-15.354-42.7,17.082-41-15.378,3.43-10.245-22.215-26.774-22.793Zm204.984,95.653,33.036-29.631c15.955-18.184,19.586-70.03-19.359-68.328l-13.677-30.733,4.583-9.091v-27.326l-17.081-6.838-4.585,34.164-15.928-2.279,2.254-14.8-9.067,1.127-2.3,17.082h-11.371l-6.837-9.117-18.233,23.919,4.582,10.245-5.71,6.837-1.129,14.827,17.083,17.083-1.177,26.174-10.245,6.813-14.777,2.3v15.956c-28.478,9.092-30.758,32.987-30.758,32.987-39.875,22.793-17.082,50.118-17.082,50.118l-3.406,26.2-21.64,29.606-10.245,35.315,21.616,17.082,6.837-13.65-1.126-20.514,17.082-21.665v-34.164l9.092,3.432,15.956-14.8,35.291-5.71,4.583-25.021,28.454-19.386Zm139.335,18.309,8.941-10.871,23.294,2.33,3.506-14.728,14.327,2.33,5.436,20.563,38.446,46.988,10.894,1.929.752-13.2,10.169,8.967,11.5,16.281,34.791,31.033.425,29.028-48.416,18.21-11.947,42.705,6.813,10.243-6.813,18.786s-20.514,52.95-42.7,68.328c0,0-27.326,44.408-18.811,70.031l13.676,10.268-3.405,39.273,23.895,6.838s27.35,1.7,42.7,30.757c0,0,18.81,11.948,35.893,15.354l42.7,22.217,31.333,15.955-2.3,17.081,9.118,5.686,7.965-6.838,12.548,5.686-2.3,21.641-6.812,15.955-15.98,1.127-14.777,15.955,25.046,4.532s-13.675,13.677-12.5,13.677c1.127,0,14.778,36.442,14.778,36.442l-28.454,17.082-35.314-1.126-15.932-10.243,39.824-2.28-2.253-11.4-40.978-2.279-17.107-6.838-5.686,10.244h-10.27l17.107-28.453-12.548-7.99-4.56,6.838-12.523-4.561-9.092,17.109,13.675,5.684-42.179,29.581,3.432-17.057-18.208,2.28-3.432,25.046h-7.941l-4.583-19.337-15.93,3.408,6.837,18.208-17.081,14.8-9.117-9.092-50.119,29.58-12.5-11.37-34.164,30.757-4.582,19.362,19.359,9.092L6743,7588.92l-9.117-18.209s-29.63,28.479-29.63,27.351c0-1.177,27.325,5.661,27.325,5.661l-1.127,14.829,18.209,10.245-9.092,12.523,2.254,20.488-12.5,3.406-3.407-13.65-18.258-7.964-6.839,21.615,15.956,2.3-1.1,11.371-13.676,3.407-1.178,17.082-17.057,2.305,4.559-12.549h-13.651l-1.177,20.512L6653,7716.459s-34.162,45.585-41,80.875l-9.668,25.623-18.785-2.83-21.641-12.547-26.2-33.038-14.778-4.534.6-19.587.426-23.167,2.1-32.412,12.774,6.839,4.584-26.2,10.244-18.233h26.174l33.037-37.571,37.571,5.712,3.431-41.579,3.407-54.678-13.651-13.65,25.623-35.867-20.513-37.595,18.812-10.245-30.757-44.408,15.378-30.758,52.948-11.947,10.245-29.054-3.407-22.192-22.216,8.541-3.406-22.216-13.676-8.541-17.081,10.243-34.165-27.325,20.513-58.084-16.229-40.124-14.527-33.312,37.569-22.217-3.405-11.947,18.785-18.786-20.489-8.565,13.651-11.948,15.378,8.541,18.786-3.406,44.433,18.784L6790.234,7044l27.326-56.355,1.728-42.705,10.245-5.134v-29.029l10.244-34.164-25.624-15.377,2.831-23.922ZM6317.6,6634.138l10.5.952-1.9-15.229h14.275s-3.806,29.531-3.806,28.553c0-.951,11.421,9.543,11.421,9.543s23.77-4.784,25.7-4.784c1.9,0,21.89-25.7,21.89-25.7l20.939-5.71,2.88,16.206s-13.35-1.9-14.276-.953c-.977.953-7.615,24.721-7.615,24.721l29.479.978,36.168-12.373s-.951-20.94-1.9-20.94c-.927,0,13.324-15.254,13.324-15.254l14.278,16.2,13.324-8.589-11.421-15.229,8.59-3.782,9.495,5.686s12.4-18.059,12.4-19.011-28.554-21.916-28.554-21.916l5.687-7.614s37.144,17.157,38.071,17.157h13.324l32.386-3.833L6587,6559.9l-8.592-10.445-.952-9.543,5.736-5.686.925-13.325-10.443-5.709-.977-12.4,33.313-27.625,12.374,47.637s-7.589,8.541-7.589,9.492,11.42,14.278,11.42,14.278l19.036-13.325,9.518-45.66c3.806-41.9-55.2-86.637-55.2-86.637s-.952-11.421-.952-20.013c0-8.516,2.829-19.011-11.421-32.336-14.277-13.324-3.833-25.7-3.833-25.7,22.868-5.709,38.1-76.141,38.1-76.141,28.528-18.083,36.143-48.566,36.143-48.566l14.3-15.229-6.639-28.078,30.758.851,33.888-30.18,12.048,18.559,18.734,5.135,15.879,20.387,7.339,40.276,32.912-.576,19.836,21.013,11.347-.575,13.626-10.219,41.376,2.83,48.216,42,1.7,11.872h15.879l9.643-7.364,23.594-3.255,8.141,9.392-19.512,15.654-1.7,32.459,51.246,68.329,5.135,20.489-25.623,34.162-143.492,20.515L6868.831,6482l-66.625-20.489-34.164,13.652-14.452,49.416-8.338,21.213-35.293-18.259-19.386-10.242-13.649,4.584-5.686,17.08,18.209,50.095-2.28,15.954-30.757-5.71L6653,6622.089l-66.047,34.163-22.793-17.081-14.778,25.046,1.127,31.91-23.919,19.336-30.757-6.837-3.408,15.955-22.767,28.453-21.641-3.407-10.244,7.99-42.128-18.235-53.551-7.964v-25.047l-32.986-29.63,7.939-27.325-17.057-13.676,18.21-21.616ZM7091,5573.206l26.65-11.1,14.777,7.74,12.575-5.911.751-11.1,6.288-5.16,8.139,12.574-4.458,5.91,5.209,9.644s-33.663,8.84-34.038,8.84-8.492,9.268-8.492,9.268l-15.554-1.1Zm181.54-133.2-17.081,23.92s-55.83-10.269-72.913,10.244l-2.253,14.777s-19.362,15.956-13.65,27.327l-18.259,8.015-4.533,10.244-7.966,2.253-10.244-11.371-17.082-2.3-4.583-7.939,11.4-9.143-10.245-5.661-19.36,10.244,3.406,12.5-22.792,37.6,8.015,6.837s0,18.234-1.177,18.234c-1.127,0-12.5-1.152-12.5,0,0,1.127-5.711,22.742-4.583,22.742,1.177,0,13.675,5.711,13.675,5.711l11.4-4.533,1.152-9.117s18.184,0,18.184,1.127c0,1.152,17.106,58.058,37.594,1.152,0,0-4.533-15.955,21.667-14.827l-1.177,72.911-1.128,23.919-31.734-2.6-57.082,29.354-22.216,111.031-29.029,18.786,13.675,29.029-15.378,42.7,13.65,41-13.65,88.84,11.948,34.165-11.948,10.243,4.509,20.088-1.679,15.779,13.876,22.291,16.28,3.507.8,13.175-38.07,52.048,1.178,20.939-14.578,30.407-23.594,3.255-9.643,7.364h-15.879l-1.7-11.872-48.216-42-41.376-2.83-13.626,10.219-11.347.575-19.836-21.013-32.912.576-7.339-40.276-15.879-20.387-18.734-5.135-12.048-18.559,14.778-12.524,13.675-25.046,21.614-4.583s218.659-216.354,228.9-364.381l-6.837-12.547,9.141-20.489-1.126-27.326-10.245-6.836-13.675-36.469,4.534-22.742-3.406-23.92s-9.117-23.92-17.083-1.152c0,0-10.243,12.523-9.117-11.371,0,0-6.838-35.316,17.083-48.967l-1.128-11.42s18.209-4.534,11.372-45.536l14.827-20.487-2.3-12.549s41-10.245,60.388-27.326c0,0,34.164,17.082,61.489-6.837l29.581-12.5s27.325-14.828,30.757-27.326c0,0,30.733-18.259,55.831-15.979,0,0,46.661-26.2,68.327-14.778l14.776,14.778s-10.243,11.4,5.71,27.351a28.062,28.062,0,0,1-20.487,14.778c-13.677-21.615-69.506,27.351-35.342,53.55ZM7456.4,6054.1l27.5-36.97-2.73-16.505,28.178-57.758,23.369-10.995,3.005-109.43,3.282-10.044-4.91-22.517s-9.343-15.378-9.343-15.854c0-.451.5-29.354.5-29.354s-8.414-8.366-8.866-8.366c-.477,0-2.78-36.369-2.78-36.369l-24.721-4.633-14.779-20.688-16.88-.426-19.262,8.691-44.106,6.211-8.065,9.318s-33.563-1.252-32.937,27.952l.6,23.619-11.771,24.822-2.5,16.154-21.716,13.676-8.716,15.5-47.839-7.438s-36.618,17.382-76.993-6.839l-33.563-28.553s-42.855-19.887-13.65-49.717l13.049-19.237-3.1-6.837,10.843-16.657-31.734-2.6-57.082,29.354-22.216,111.031-29.029,18.786,13.675,29.029-15.378,42.7,13.65,41-13.65,88.84,11.948,34.165-11.948,10.243,4.509,20.088-1.679,15.779,21.565-2.555,30.257-36.744,42.705,20.514-5.109,35.867,22.191-8.541,34.164-61.489,63.219-51.247h70.031l120.9,43.206,27.124.626Zm-498.957,805.354-4.934,23.393-10.169-8.967-.752,13.2-10.894-1.929-38.446-46.988-5.436-20.563-14.327-2.33L6868.981,6830l-23.294-2.33-8.941,10.871-19.762-1.229-15.3-16.5,7.338-35.866,7.964-46.713,10.244-10.244-18.208-88.816-13.651-26.2-12.546,12.525-15.906-7.965-1.176-46.688-15.68-.775-4.808-24.272,8.338-21.213,14.452-49.416,34.164-13.652L6868.831,6482l3.407-15.354,143.492-20.515,25.623-34.162-5.135-20.489-51.246-68.329,1.7-32.459,19.512-15.654-8.141-9.392,14.578-30.407-1.178-20.939,38.07-52.048-.8-13.175-16.73-3.682-13.426-22.116,21.565-2.555,30.257-36.744,42.705,20.514-5.109,35.867,22.191-8.541,34.164-61.489,63.219-51.247h70.031l120.9,43.206,27.124.626-.124,15.428,31.458,19.312-5.134,32.459-35.868,52.949,11.973,15.378-22.216,51.247,29.029,25.623-76.868,116.167-22.191-10.27-47.839,49.542v18.786l47.839,22.216,54.651,80.3-8.541,20.488,20.489,66.625,37.6-10.246,8.54,44.409-17.082,20.488-20.513,82.2,1.151,19.16-22.292.451-40.3,33.713h-14.077c-.925,0-40.325-28.1-40.325-28.1l-28.1-11.246-16.882,12.2-38.447,10.271-12.2-14.979s-16.881-11.247-15.9-11.247c.925,0-23.444-1.877-23.444-1.877l-26.275-42.205-29.079-21.539.952-17.809-14.077,1.877-2.779,15s-18.76,11.246-16.882,11.246-45.009,12.172-45.009,12.172l-19.71,2.807-6.564-6.539-14.025-1.876-45.034,81.576s-.928,29.98,0,29.98c.951,0-3.733,8.442-3.733,8.442m0,0s4.684-8.442,3.733-8.442c-.928,0,0-29.98,0-29.98l45.034-81.576,14.025,1.876,6.564,6.539,19.71-2.807s46.888-12.172,45.009-12.172,16.882-11.246,16.882-11.246l2.779-15,14.077-1.877-.952,17.809,29.079,21.539,26.275,42.205s24.37,1.877,23.444,1.877c-.978,0,15.9,11.247,15.9,11.247l12.2,14.979,38.447-10.271,16.882-12.2,28.1,11.246s39.4,28.1,40.325,28.1h14.077l40.3-33.713,22.292-.451-8.064,20.063,16.33,19.863-1.578,16.3,38.4-8.64,24.972-14.4,40.65,17.583,35.066-5.21-14.9,18.686,8.991,9.692v16.582l-18.009,33.162-44.208,51.146-.727,30.432-22.09,16.581-16.606,42.154-18.66,4.859-2.755,17.282-33.864,6.211-23.493,19.336-6.912,37.345,11.747,38.021-5.285,13.8-18.937,6.139c-39.4,2.1-161.777,52.046-161.777,52.046s-30.231-.7-30.933-.7-35.892,7.038-35.892,7.038c1.4-7.038,22.517-52.048,22.517-52.774,0-.675,13.375,0,13.375,0s7.739,15.48,8.441,15.48,11.947,3.53,12.673,3.53c.675,0,3.506-9.167,2.78-9.167-.676,0-3.506-7.713-3.506-7.713s23.217,1.4,23.217.677c0-.677,23.219-17.56,23.219-17.56l3.507,6.339s7.764-11.246,8.44-11.974c.727-.7,17.608-8.439,17.608-8.439l-3.532-9.143,13.349-9.116s5.661,2.779,5.661,2.078-.726,28.854-.726,28.854l7.74-2.83v-20.389s14.777-.675,15.479-.675,0-7.038,0-7.038l-14.078-3.533,2.13-21.113,5.609-7.04c-10.569-30.231-33.061-18.283-33.061-18.283l-11.948-2.781c-32.358-8.44-30.956,27.427-30.956,27.427h-7.74c.7,0-4.935-8.491-4.935-8.491l-54.853-1.378c-23.919,7.74-26-2.805-26-2.805-14.076-38-28.879-27.451-28.879-27.451l.726-18.259,7.039-9.167,3.506-11.946-.7-11.974-5.611.727-5.635,15.478-10.57,14.028c-18.986,43.631-5.636,66.824-5.636,66.824,35.867,28.154,24.646,40.8,24.646,40.8-35.191,4.232-71.76-38.673-71.76-38.673,32.36-63.294-8.439-89.343-9.142-89.343s3.507-53.425,3.507-53.425c9.843-12.672,23.242-54.876,23.242-54.876l10.52-10.544-2.079-10.57-27.451,11.246-26.75,33.063-17.583-9.445-.425-29.028-34.791-31.033-11.5-16.281ZM7483.9,6017.134l-2.73-16.505,28.178-57.758,23.369-10.995,3.005-109.43,3.282-10.044,15.929-9.142,44.408-53.5-6.812-35.316,86.561,11.4L7668.85,5771.4l32.987,19.361,10.242-22.792,104.8-15.956,12.549-42.128,23.894-2.279,21.641-51.245,69.455-17.083,31.91,23.92,9.092,61.489,48.992,26.2,3.406,27.326-15.955,26.224,13.675,10.244v18.209l-37.6,14.8-20.488,7.99-29.63,5.661L7949,5880.73l-28.5,14.778-30.759,45.584-7.939,46.663,1.127,44.408,50.118,19.386,34.165-10.269,40.976,7.965,10.27,70.633-29.63,14.776,17.083,45.586-1.129,22.742-26.2,10.27,27.327,22.767,5.709,14.8-5.709,50.118,39.874,27.327,3.406,17.082,11.973,19.636-5.135,13.676-20.488,5.409-7.965,18.234-36.467,3.407-1.127-26.2-52.4-5.684-12.5,15.954-19.387-12.549,5.711-15.928-46.712-22.793L7818,6411.4l-21.641-13.676-29.605,61.491,23.92,21.665-28.478,27.351,19.387,48.942-7.89,14.2-6.187,31.509-8.892-6.186-14.377,17.833-1.4,32.186L7753.133,6657s-2.054,19.186-2.054,19.887c0,.676-21.266,6.838-21.266,6.838l17.158,36.318-6.187,19.187-135.628,79.472-.676,15.053-26.75,6.988-35.066,5.21-40.65-17.583-24.972,14.4-38.4,8.64,1.578-16.3-16.33-19.863,8.064-20.063-1.151-19.16,20.513-82.2,17.082-20.488-8.54-44.409-37.6,10.246-20.489-66.625,8.541-20.488-54.651-80.3-47.839-22.216v-18.786l47.839-49.542,22.191,10.27,76.868-116.167-29.029-25.623,22.216-51.247-11.973-15.378,35.868-52.949,5.134-32.459-31.458-19.312.124-15.428,10.8-8.816Zm210.368,270.632,14.477,16.63,16.632-11.821-1.053-7.515-9.668-5.385Zm-298.031,894.47-11.747-38.021,6.912-37.345,23.493-19.336,33.864-6.211,2.755-17.282,18.66-4.859,16.606-42.154,22.09-16.581.727-30.432,44.208-51.146,18.009-33.162v-16.582l-8.991-9.692,14.9-18.686,26.75-6.988.676-15.053,135.628-79.472,6.188-19.187-17.158-36.318s21.266-6.162,21.266-6.838c0-.7,2.054-19.887,2.054-19.887l-10.293-10.294,1.4-32.186,14.377-17.833,8.892,6.186,6.187-31.509,7.89-14.2,11.371,21.641,11.371,47.814,1.176,39.875-7.989,12.548,7.989,11.372v20.488l-12.547,26.2,6.837,27.35,20.488,14.777,17.083-13.649,25.045,15.954,18.234,63.744s20.513,18.234,21.641,18.234,27.326,3.432,27.326,3.432l22.792-21.666-10.245-71.733,6.838-21.642-1.178-42.128,29.63-20.488,17.083,28.454s31.885,0,31.885,1.126c0,1.178,2.279,25.072,2.279,25.072l104.771-15.955,20.512-11.372h45.534l5.713,62.616-13.676,20.514-3.406,30.733,25.047,30.759,4.534,18.208,42.152,9.116-9.316,19.862-12.2,39,13.425,6.085,2.429,24.4-8.515,8.54,13.4,13.425,19.512,12.2v18.284l-6.087,31.709-29.279,18.26c-3.658,63.419-1.88,22.618-1.88,22.618l-8.54,18.809-9.393,15.354-7.689-.851-16.406,13.6-9.743,26.825,3.657,32.937h-13.426c-1.227,0-4.883-12.2-4.883-12.2s-17.031,12.2-15.855,12.2c1.228,0-6.085,14.626-4.834,14.626,1.179,0-39.022,18.26-37.819,19.487,1.226,1.252-40.251-24.372-40.251-24.372s8.491-13.926,9.743-13.926c1.228,0-9.743-15.329-9.743-15.329l-14.626-4.882s1.226-20.739,1.226-21.967c0-1.2,18.284-18.285,18.284-18.285-21.94-20.737-1.125-8.715-1.125-8.715h-4.284l-1.7-11.1-4.257-13.675,2.555-16.23s7.589-18.56,7.589-19.763c0-1.227-11-1.577-11-1.577s1.252-17.985,1.252-16.731c0,1.228,15.829-15.729,15.829-15.729l-9.743-34.264,10.6-43.458,54.652,4.535,5.711-15.9-25.071-28.5-28.479-18.21-55.2-13.075-28.053,14.6c-69.479-3.658-53.625,35.366-53.625,35.366l-7.313,1.227c-35.391,21.942-8.541,48.792-8.541,48.792-9.768,20.714-48.791,21.941-48.791,21.941l-30.483,19.512-23.143,42.679,7.315,19.486-19.512,29.28-2.48,13.4c-93.875,62.216-35.34,110.957-35.34,110.957-12.2,3.656-35.366-10.971-35.366-10.971-106.074-56.08-193.888-21.916-193.888-21.916-30.481-14.677-129.241-19.511-129.241-19.511l-38.972-1.379Zm22.442-20.964,20.512,20.489,21.766,3.1,2.479-12.422,4.96-8.692,4.959-3.106.651-12.422-5.611-2.505-12.448,11.2-1.227,14.3-9.318.6,3.105-21.715,11.822-13.676,12.4-11.823-1.228-6.836-9.317-.6-6.237,11.773-3.706-2.456-9.293.627-6.211,9.943s-7.464,0-7.464-.626a24.61,24.61,0,0,0-.651-3.105l9.342-4.984-1.227-9.943-8.115-2.456-6.187,6.188-.652,11.8-11.17,8.691Zm69.078-1494.666s138.935-43.257,174.251-79.7l18.208-2.279,39.875-43.256s20.488,15.9,73.988,3.407c0,0,97.957-80.851,99.084-91.12l4.583-10.245,56.906-28.453s37.6-56.957,39.875-68.328l-1.128-9.117,11.372-2.3,17.083-26.148,23.92-18.259c-1.053-2.254,28.353-33.788,38.7-101.34l18.26-52.4s29.581-41,38.7-41l105.923-69.455,26.2-4.534s87.664-12.548,158.271-148.076l-2.277-10.244,7.988-18.209,6.837-101.364s6.838-33.012,22.744-47.839l10.244-35.291,17.105-26.2,26.2,14.828,25.046,9.092,40.977,11.4-3.405,68.328,21.664,22.767h36.418l42.155,47.814-22.793,35.341-40.978,25.047-38.722-9.118-14.827,28.479,3.405,72.86-14.777,12.549-11.371,64.92-8.016,14.778,15.955,30.758,28.478,11.371,15.955,18.26-43.306,45.534L8527.5,5208.8l-31.883,19.386-1.153,33.037,19.362,48.941-10.244,17.082L8429.548,5317l-17.084,39.875-95.653,7.964-6.839,29.6,13.652,6.839V5434.3l-34.164,69.48,17.081,22.767,12.55-5.686,19.386,29.581-13.676,45.585,12.5,36.418-7.966,59.236-34.163-11.4-1.128-19.335-42.153-41-6.838,28.454-20.488,19.387-41,5.661,5.712,60.362-15.956-6.812-13.675,12.523,2.279,29.58-53.526,11.42-2.253,34.165-22.793,12.5-31.858-10.245-3.433,14.828-12.523,1.128v-18.209l-13.675-10.244,15.955-26.224-3.406-27.326-48.992-26.2-9.092-61.489-31.91-23.92-69.455,17.083-21.641,51.245-23.894,2.279-12.549,42.128-104.8,15.956-10.242,22.792L7668.85,5771.4l10.244-45.561-86.561-11.4,6.812,35.316-44.408,53.5-15.929,9.142-4.91-22.517s-9.343-15.378-9.343-15.854c0-.451.5-29.354.5-29.354s-8.414-8.366-8.866-8.366c-.477,0-2.78-36.369-2.78-36.369l-24.721-4.633-14.779-20.688Zm437.792-887.833,19.837,1.428-5.659,13.449-1.4,41.051-7.112,9.242-2.1,20.54s-80.726,118.271,24.8,82.153c31.16-15.579,14.854,15.579,9.918,30.432l-3.555,12.022s-28.328,33.313-24.1,62.367l-10.62,3.506-21.941,22.692h-7.789l-33.312,30.432-33.262,6.387s-40.351,29.054-53.8,2.128c10.621-14.176,10.621-8.515,31.133-15.578,0,0,12.75-14.9,15.58-32.586,0,0-8.492-10.621-7.79-10.621.726,0,13.475-18.433,13.475-18.433s19.812-2.831,21.941-23.369l-19.838-21.24s-26.2-5.686-25.472,26.2l-14.9-9.894,5.687-70.1,33.263-46.062s36.819-58.059,70.833-67.276l2.154-18.409,12.749-24.1ZM7762.2,6508.227l28.478-27.351-23.92-21.665,29.605-61.491L7818,6411.4l46.687-72.885L7911.4,6361.3l-5.711,15.928,19.387,12.549,12.5-15.954,52.4,5.684,1.127,26.2,36.467-3.407,7.965-18.234,20.488-5.409,26.2,8.817,11.371,19.36,26.224,3.432,23.921,18.208,25.9-9.668,10.243,14.528,20.489,53.8,22.217,26.473,33.312,11.1,13.651,13.675-2.7,28.554,2.954,28.3-9.267,34.165-41,31.734-39.047,13.174-14.653,16.581-11.848,25.724-20.512,11.372L8028.7,6743.942s-2.279-23.895-2.279-25.072c0-1.126-31.885-1.126-31.885-1.126l-17.083-28.454-29.63,20.488,1.178,42.128-6.838,21.642,10.245,71.733-22.792,21.666s-26.2-3.432-27.326-3.432-21.641-18.234-21.641-18.234l-18.234-63.744-25.045-15.954-17.083,13.649-20.488-14.777-6.837-27.35,12.547-26.2v-20.488l-7.989-11.372,7.989-12.548-1.176-39.875-11.371-47.814-11.371-21.641Zm527.862,35.266,25.623,11.4,12.522,29.606h53.5l30.757,10.27,42.154,53.525,7.965-53.525-20.513-17.108,10.269-9.117,11.371,9.117,19.361-20.488,48.967,18.209,44.408,48.992,46.712,8.816,1.128,15.1-27.327,14.8-13.675,12.524-7.965-13.65-4.083,15.63c-38.2-13.8-12.824,23.319-7.289,16.23l-4.584,21.641c-20.938-11.7-21.59,21.54-10.244,17.081l2.279,26.2s-13.649,5.71-12.521,6.838c1.151,1.127,13.648,9.117,13.648,9.117l-9.066,4.532v9.143l18.209,4.534,11.371,12.524,20.488,3.432,6.838,6.837-20.489,29.58c-37.594,1.152-27.351,33.036-27.351,33.036l12.55,4.534s-3.407,8.015-3.407,9.143c0,1.1-34.165,1.1-34.165,1.1l-1.151-12.5,6.838-7.99-1.151-12.5-7.965-3.4v-9.143l10.244,1.127v-12.5l-12.523-3.407-18.209-25.071,1.126-18.234-15.929-12.524s-10.244,6.839-9.118,6.839-20.488-3.432-20.488-3.432l-29.628-9.091c-116.168,3.431-152.586,55.8-153.739,55.8-1.126,0,1.153,55.779,1.153,55.779l-17.083,5.71-42.152-9.116-4.534-18.208-25.047-30.759,3.406-30.733,13.676-20.514-5.713-62.616H8153.98l11.848-25.724,14.653-16.581,39.047-13.174,41-31.734,9.267-34.165-2.954-28.3,2.7-28.554Zm-105.349-146.9,12.524,4.559,15.955-12.5,43.28,23.894,23.92-1.153,26.148,14.829,52.423,4.532,17.082,23.92,38.7,25.046,78.6-25.046-1.126,22.792,23.895-12.548,14.8,5.711,15.954-17.082,53.5,7.964,5.71-17.082,45.536,10.245,25.347,11.1-4.282,14.4,10.77,11.02-3.056,10.019,13.2,17.958-5.935,11.522-12.4.451v21.315l-8.542,9.843-29.905,15.354-17.058,17.108,2.281,14.777,1.126,23.644-46.712-8.816-44.408-48.992-48.967-18.209-19.361,20.488-11.371-9.117-10.269,9.117,20.513,17.108-7.965,53.525-42.154-53.525-30.757-10.27h-53.5l-12.522-29.606-25.623-11.4-20.514-5.11-13.651-13.675-33.312-11.1-22.217-26.473-20.489-53.8-10.243-14.528Zm-128.69-17.933,5.135-13.676-11.973-19.636-3.406-17.082,26.2-33.037,29.581,3.432,23.918-28.479,30.757-13.65,62.644-21.641,13.674-18.234-1.152-18.21,39.851-60.361,102.491,28.478,18.234-15.954,53.525,47.837,72.86-14.8,11.421,11.4,18.21-6.837,8.665-13.025,13.326,12.2,4.082,13.6-4.659,2.079.853,12.2,19.336,31.984,2.128,18.511,23.745,1.878,21.114,33.614-.526,21.84,9.568,23.443,21.34,27.152L8684,6409.344l-8.541,16.5,1.5,39.925-25.347-11.1-45.536-10.245-5.71,17.082-53.5-7.964-15.954,17.082-14.8-5.711-23.895,12.548,1.126-22.792-78.6,25.046-38.7-25.046-17.082-23.92-52.423-4.532-26.148-14.829-23.92,1.153-43.28-23.894-15.955,12.5-12.524-4.559-15.077,22.216-25.9,9.668-23.921-18.208-26.224-3.432-11.371-19.36ZM8389.7,5755.446l29.6,17.082-28.478,39.874,9.144,21.616-25.1,59.235,33.061,26.173h42.1l10.269,18.234-30.756,44.434-7.968,36.418-26.2,51.246,29.63,29.6v13.675l34.162,28.454,81.979,1.177,15.5,32.509-8.665,13.025-18.21,6.837-11.421-11.4-72.86,14.8-53.525-47.837-18.234,15.954-102.491-28.478-39.851,60.361,1.152,18.21-13.674,18.234-62.644,21.641-30.757,13.65-23.918,28.479-29.581-3.432-26.2,33.037-39.874-27.327,5.709-50.118-5.709-14.8-27.327-22.767,26.2-10.27,1.129-22.742-17.083-45.586,29.63-14.776-10.27-70.633-40.976-7.965-34.165,10.269-50.118-19.386-1.127-44.408,7.939-46.663,30.759-45.584,28.5-14.778-1.178-19.386,29.63-5.661,20.488-7.99,37.6-14.8,12.523-1.128,3.433-14.828,31.858,10.245,22.793-12.5,2.253-34.165,53.526-11.42-2.279-29.58,13.675-12.523,15.956,6.813-5.712-60.362,41-5.661,20.488-19.387,6.838-28.454,42.153,41,1.128,19.335,34.163,11.4-1.127,12.523,19.337-4.558,63.794,18.209Zm481.724-12.5,3.432,23.894-1.176,53.5,17.08,29.63-37.569,14.8,11.4,46.687,3.432,63.794-23.92,47.815-12.549,35.316-22.767-13.676-20.515,12.524-17.082-6.812-3.405,20.488-48.966,2.254-4.534,15.955-21.666,11.371-5.684,19.387-21.641-9.118-15.931,12.524-9.117,39.874-44.409,23.92-25.847.3-13.326-12.2-15.5-32.509-81.979-1.177-34.162-28.454v-13.675l-29.63-29.6,26.2-51.246,7.968-36.418,30.756-44.434-10.269-18.234h-42.1l-33.061-26.173,25.1-59.235-9.144-21.616,28.478-39.874-29.6-17.082,21.641-37.595,37.569-35.291,72.887-33.038,97.957-51.245,44.408-35.291,69.455-1.127,74.013,25.046,31.885,46.713,30.758,10.243,3.407,59.211Zm-251.67,509.025,17.058,28.478,14.8,15.955,23.92,34.164L8700.6,6357.9l44.407,22.743,61.517,26.2,13.65,18.21,23.919-14.778,21.615,4.533,19.387-13.65,22.74,5.685,21.667-19.36,39.85-6.839,11.4-6.812,15.93,7.989,15.955-30.758,26.2,21.616L9076.4,6414.8l28.454,8.013,13.676,9.068,6.836,27.327,47.815,33.914,13.676-3.432,12.549,7.114-3.434,26.2-14.826-13.675L9129.9,6523l-17.08-6.837s-171.946,63.794-166.235,242.578l7.966,9.116-7.966,45.537,6.838,2.3-14.827,48.942-13.677-2.28-15.905,27.327s-11.42-7.966-10.268-7.966c1.126,0-9.117,9.143-9.117,9.143h-21.615l-13.676,15.906s-62.642-20.489-72.912,31.908c0,0-68.327,13.677-64.9,70.582,0,0,1.152,47.839-75.166,31.91,0,0,7.991-26.2-37.594-35.316l43.306-14.8h11.372l-1.128-22.793-14.8-7.939-5.711-22.792,18.208-13.675-11.371-7.965-2.279-11.372s17.084-10.244-3.43-27.326c0,0-7.941-41,28.5-38.747,0,0-3.406-55.78-42.152-63.744,0,0,23.919-15.955,22.792-15.955s2.279-23.92,2.279-23.92,26.174,5.712,26.174,6.838,13.65-12.549,13.65-12.549l-10.243-27.326s77.467-31.884,85.407-75.165c0,0,36.47-10.244,9.117-44.407,0,0-30.731-35.291-30.731-34.164,0,1.152-36.444-6.838-36.444-6.838s-14.8,4.582-13.675,5.711c1.152,1.126,7.99,12.547,7.99,12.547l-18.233,13.65-15.655-10.82,8.542-9.843v-21.315l12.4-.451,5.935-11.522-13.2-17.958,3.056-10.019-10.77-11.02,4.282-14.4-1.5-39.925,8.541-16.5-17.032-35.667-21.34-27.152-9.568-23.443.526-21.84-21.114-33.614Zm545.5-479.446-15.955,2.28s-33.037,72.885-33.037,109.329c0,0-77.419,122.979-46.688,189.028l-20.487,43.281-12.549,2.3s-19.359,129.817,134.376,349.6l15.956,21.34-15.956,2.581-45.535-33.062-6.836-27.327-13.676-9.068L9076.4,6414.8l-37.569-42.129-26.2-21.616-15.955,30.758-15.93-7.989-11.4,6.812-39.85,6.839-21.667,19.36-22.74-5.685-19.387,13.65-21.615-4.533-23.919,14.778-13.65-18.21-61.517-26.2L8700.6,6357.9l-25.071-27.326-23.92-34.164-14.8-15.955-17.058-28.478-4.282,15.654-23.745-1.878-2.128-18.511-19.336-31.984-.853-12.2,4.659-2.079-4.082-13.6,25.847-.3,44.409-23.92,9.117-39.874,15.931-12.524,21.641,9.118,5.684-19.387,21.666-11.371,4.534-15.955,48.966-2.254,3.405-20.488,17.082,6.813,20.515-12.524,22.767,13.676,12.549-35.316,23.92-47.815-3.432-63.794-11.4-46.687,37.569-14.8-17.08-29.63,1.176-53.5-3.432-23.894,2.256-39.875,20.513,2.28,15.955,25.046,23.894,6.838,1.152,29.6,51.22,25.047,35.343-38.7,29.578-6.837-13.648-36.469,11.4-11.371,21.615,26.173,87.714,26.2Zm-319.172,499.384,8.541,16.2,41.854,14.527,20.487-.851,16.229,15.377-9.392,14.528,29.055-1.7,17.934,5.962,18.785,17.082,10.243-2.555-1.7-11.1-42.705-72.611-6.838-8.541-2.554-15.378-12.826-19.637-29.879-5.135,11.947,22.216,23.067,16.231,3.406,11.947-9.392,11.973-52.95-2.58-11.973-.851-5.96-9.394Zm184.494,22.19-5.986,5.986,8.542,4.259-8.542,11.12,19.636,13.65.853,15.378,18.812,27.327-15.38-1.7-1.7,5.986,18.886,20.589.6-20.464,6.988-14.652-9.393-11.1-9.418-23.919-14.5-44.409-13.675-10.242-5.11-29.907-13.674-12.8,7.688,17.933,4.257,33.313ZM8337.3,5632.442l-12.5-36.418,13.676-45.585-19.386-29.581-12.55,5.686-17.081-22.767,34.164-69.48v-33.011l-13.652-6.839,6.839-29.6,95.653-7.964L8429.548,5317l74.037,10.244,10.244-17.082-19.362-48.941,1.153-33.037L8527.5,5208.8l25.022-48.942,43.306-45.534,19.362-5.711,18.21,17.082,30.756-11.371,37.57,3.405,14.8,7.965,11.4,29.6,35.291-11.4,38.723,30.732,20.486-17.083,35.316,8.016,35.317-39.875-14.8-18.209,4.533-91.12,36.468,13.651,32.986-17.057,35.343,20.488,5.658,30.733,61.492-7.94,50.118,17.082v51.246l39.873,12.5,48.967-6.838,2.278-61.489,36.42,2.278,15.955,37.6,12.822,2.555,3.407,32.46,11.1,24.771s29.905,252.822.877,327.112c0,0-10.27,77.72-5.988,89.691,0,0-23.067,38.422-11.094,73.462,0,0-15.379,32.436-31.61,42.681,0,0-48.689,5.135-63.192,28.2l-4.282,9.392-1.979,11.948-87.714-26.2-21.615-26.173-11.4,11.371,13.648,36.469-29.578,6.837-35.343,38.7-51.22-25.047-1.152-29.6-23.894-6.838-15.955-25.046-20.513-2.28-3.407-59.211-30.758-10.243-31.885-46.713-74.013-25.046-69.455,1.127-44.408,35.291-97.957,51.245-72.887,33.038-37.569,35.291-63.794-18.209-19.337,4.558,1.127-12.523Zm461.786-322.277s-39.272-3.406-52.948,15.379l26.475,51.246,29.906,8.54,17.082-22.191-.853-27.351-21.364-8.541Zm831.9-881.421-23.919-18.785,6.838,29.03s-5.962,8.541-9.394,5.985c-3.406-2.579-18.785-34.164-18.785-34.164-7.688,22.192,2.557,39.273,3.408,39.273.876,0-12.8,9.393-12.8,9.393-58.082,20.514-5.133,49.542-5.133,49.542l-.852,17.934-15.38.851c-9.392,24.771-45.26,24.771-45.26,24.771v17.082s43.558,6.838,43.558,5.986-.852,16.23-.852,16.23L9517.4,4619.2l16.23,23.92,17.082-7.689c11.948,5.135,4.258,39.3,4.258,39.3l-13.65-17.935-11.973,4.258c11.973,5.134-2.555,29.905-2.555,29.905l25.624,3.407-.853,11.1-35.867,1.728,8.542,26.475,17.081-10.269s38.422,12.824,15.379,16.23c-23.068,3.432-25.624,14.527-25.624,14.527,23.9,7.689,28.178,35.016,28.178,35.016l-8.54,23.92-28.178-20.489-5.135-20.513-23.918-4.258,14.525-15.379-17.082-16.23-24.771,5.986-.852-16.23c-76.867-11.121-105.9,29.881-105.9,29.881l-5.987,25.623-11.121-22.191c-10.245-34.164-40.975,2.554-40.975,2.554-28.205,46.112,7.688,20.514,7.688,20.514l6.813,18.785-17.935,10.245c-92.248,90.518-67.477,245.132-67.477,245.132l1.98,14.5-36.42-2.278-2.278,61.489-48.967,6.838-39.873-12.5v-51.246l-50.118-17.082-61.492,7.94-5.658-30.733-35.343-20.488-32.986,17.057-36.468-13.651,2.3-56.956,72.859-13.676,33.037-66.023-3.4-59.211,27.325-51.246,48.967-71.734-35.29-54.677,15.9-20.489-21.613-55.829,30.758,9.117,11.37-44.408,17.082-45.535-23.92-4.583-4.532-30.758-22.793-19.335-3.432-13.675,26.225-5.686,35.266-3.431,31.909-26.2,10.269-19.336,17.083,1.127,35.291-3.407,27.325,23.92,35.29,12.523,19.363,21.64,83.128-1.152v18.234l-17.081,14.777,52.4,52.424,53.524-47.84,60.362,25.047,35.291-79.7-3.432-63.793,54.678,5.71,21.666,11.371ZM8491.437,4627.515l36.066-67.728,4.936-16.781,11.822-.6s8.064-19.236,28.578-23.62c0,0,3.105-23.594,19.861-24.221,0,0,27.954-33.537,42.882-119.874l1.853-13.675,13.049-9.943,19.888-78.271-3.933-14.877,63.744,5.71,36.47-17.107,2.278,28.479,48.966,26.2,84.283,21.615,23.893-4.533,11.4,20.488,31.884,4.559,10.244,38.7,28.478,21.667,17.082-1.153,2.255,14.8,3.432,13.675,22.793,19.335,4.532,30.758,23.92,4.583-17.082,45.535-11.37,44.408-30.758-9.117,21.613,55.829-15.9,20.489,35.29,54.677-48.967,71.734L8987.59,4820.5l3.4,59.211-33.037,66.023L8885.1,4959.41l-2.3,56.956-4.533,91.12,14.8,18.209-35.317,39.875-35.316-8.016-20.486,17.083L8763.22,5143.9l-35.291,11.4-11.4-29.6-14.8-7.965-37.57-3.405L8633.4,5125.7l-18.21-17.082-19.362,5.711-15.955-18.26-28.478-11.371-15.955-30.758,8.016-14.778,11.371-64.92,14.777-12.549-3.405-72.86,14.827-28.479,38.722,9.118,40.978-25.047,22.793-35.341-42.155-47.814h-36.418l-21.664-22.767,3.405-68.328-40.977-11.4-25.046-9.092-26.2-14.828Zm1302.432-511.957c-1.176,0,0,13.651,0,13.651l-47.839,4.583,19.337,12.5-2.255,11.421s-17.082-3.406-17.082-2.279,2.255,13.65,2.255,13.65l30.758,2.3,1.153,17.082s-44.41,12.5-44.41,13.65v9.093l23.921,3.406s-17.082,17.082-15.956,18.259c1.128,1.127-21.639,2.254-21.639,2.254l31.883,26.2-14.8,15.955s-34.164-17.082-33.036-17.082,3.429,25.046,3.429,25.046l28.453,6.837-33.01,7.94,20.512,17.107h-52.422c-1.127,0-6.839-20.513-6.839-20.513l-19.335,20.513,20.512,21.64-17.08,11.4,9.065,15.955-13.649,10.244-18.209-41-21.615-3.407v21.615l-21.666-11.371-54.678-5.71,3.432,63.793-35.291,79.7-60.362-25.047-53.524,47.84-52.4-52.424,17.081-14.777v-18.234l-83.128,1.152-19.363-21.64-35.29-12.523-27.325-23.92-35.291,3.407-3.433-27.326,18.209-51.247-23.919-3.406,1.152-39.874,22.767-27.351-13.649-7.939,1.127-26.225-33.012-40.976-27.326-68.353,41-107.025,31.859-34.163,10.245-47.84-20.489-29.605,35.291-44.408-30.756-18.209,2.3-38.723,46.715,7.965-14.854-52.373-1.1-80.876,15.956-14.777-9.145-52.423,42.129-35.291,3.432-13.65,13.649,13.65,19.362,7.965,53.55-29.58-3.432-12.548,59.212-23.919,54.676-36.444,21.616,26.2,47.838-30.733,45.586,19.362,27.325-20.489,3.407-19.386,34.164-12.524,14.8-13.675,20.489,24.5s58.084,100.789,59.787,124.708c0,0-46.112,30.733,6.837,29.03l17.082,25.622s-59.787,22.217-5.134,59.787l20.512,23.919,17.081,1.7,13.652,44.408s-34.163-3.406,5.134,44.433c0,0,18.785,73.438-10.245,189.6l37.572-41,5.134,49.542s37.57,15.379,0,30.758c0,0-13.676,33.012-14.8,30.733-46.688-5.711-25.072,55.779,5.686,12.548,0,0,25.071-23.92,22.792,2.254,0,0-14.8,11.4-12.548,29.605h-30.758l-20.487,25.046,15.953,2.3-10.244,15.955c-13.4-10.97-53.85,21.591,2.281,11.372C9780.2,4114.432,9795,4115.559,9793.868,4115.559ZM8729.155,3612.444s-24.872,41.077-30.658,44.809l-5.008,48.09L8713,3729.813s33.588,7.89,43.13,21.967c0,0,6.612-28.6,7.891-35.216l8.691-13.3v-65.9Zm1.278,4.584,35.215,26.1v57.232s-17.833,19.511-29.854,19.086c-12.023-.4-29.432-9.117-29.432-9.117s-9.115,3.731-3.73-23.644l2.479-28.628Zm294.725,785.517-17.082,1.153-28.478-21.667-10.244-38.7-31.884-4.559-11.4-20.488-23.893,4.533-84.283-21.615-48.966-26.2-2.278-28.479-36.47,17.107-63.744-5.71,8.841-17.809,11.322-21.94.727-13.45s-7.815-2.129-8.517-2.129c-.676,0,.7-12.022.7-12.022l9.919-9.192.728-27.6,4.958-7.789,19.085-1.428c65.124-112.51,53.1-269.629,53.1-269.629l-3.557-28.328-7.79-42.454c-41.026-79.974-95.529-59.436-95.529-59.436s-3.557,20.513-3.557,21.24c0,.677-21.94,2.1-21.94,2.1l-36.793-3.531L8593.9,3736.9l-9.216,1.453-7.064-24.772,9.192-6.386-9.917-3.532-2.832-35.391,14.853,18.384,33.988,15.58,24.045-4.233c88.489-79.272,80.7-154.288,80.7-154.288,23.344-42.479,18.485-57.908,18.485-57.908,13.676-70.606-20.487-63.794-20.487-63.794l-20.515-31.86,38.724,5.686,4.583-22.767,35.291-6.838,9.116,19.361,124.107-2.279,9.115-25.047h41l59.211,34.164,47.839,4.533,87.689-20.489,6.837-23.919,17.282-13.35,18.636-3.106,1.3,9.894-21.516,4.384-1.177,16.331,4.358,3.957,3.606,19.512,9.14,11.146,9.168-7.965,52.574-2.079,4.532,51.246-14.776,2.28-9.117,64.921-3.432,13.65-42.129,35.291,9.145,52.423-15.956,14.777,1.1,80.876,14.854,52.373-46.715-7.965-2.3,38.723,30.756,18.209-35.291,44.408,20.489,29.605-10.245,47.84-31.859,34.163-41,107.025,27.326,68.353,33.012,40.976-1.127,26.225,13.649,7.939-22.767,27.351-1.152,39.874,23.919,3.406-18.209,51.247,3.433,27.326-17.083-1.127-10.269,19.336-31.909,26.2-35.266,3.431ZM8706.287,3349.153s-3.431-39.875-14.8-61.515l-27.326-1.1-1.127-20.513s56.907-37.57,71.734-81.979l33.012-18.259,25.071,15.955s38.7-5.71,45.535-29.606c0,0,22.793,25.072,44.408-34.164,0,0,28.478-105.923,21.641-166.26l-12.523-17.082-20.489-1.152-1.151-14.8,26.2,5.71s27.324-21.666,15.954-64.921l6.837-18.234,27.326,15.955s38.7,71.734,73.989,4.534c0,0,30.755-5.661,58.081,31.91,0,0-9.092,117.294,18.261,190.18,0,0,40.976,97.933,101.313-12.523l-7.938-25.072,14.776-42.129,54.678,34.164,1.152,14.8,15.93,4.583,23.895,9.067s38.746,95.678,92.247-46.662l9.118-79.724,12.547-17.082s11.372-59.211-43.28-93.375c0,0-21.641-10.269-27.327,23.895l-12.548,15.955-31.883,19.362-15.955,3.406s-15.906-27.326-40.978,3.406c0,0-23.92-1.127-30.758,9.142,0,0-29.58-2.3-41,20.488,0,0-26.174,15.955-27.325-33.037l7.989-19.336s26.174-120.751,30.758-130.995l38.7-60.338-6.837-13.65,10.27-17.082s30.733,47.814,83.1,41l25.073,14.778s94.5,143.493,184.5,20.513l-3.406,34.164s-48.992,130.944-34.164,185.6c0,0-14.828,248.289,56.906,359.9,0,0,11.42,29.58,39.873,10.244l58.084,60.338-14.8,13.675-34.164,12.524-3.407,19.386-27.325,20.489-45.586-19.362L9461.3,3455.05l-21.616-26.2-54.676,36.444-59.212,23.919,3.432,12.548-53.55,29.58L9256.191,3524l-13.526-14.277,9.117-64.921,14.776-2.28-4.532-51.246-52.574,2.079-2.8-10.745,1.6-5.56,8.365,12.322,7.564-3.581-4.785-12.323,3.582-5.986,11.948,10.369,5.16-15.93-15.13-17.933-19.084,2-1.3-9.894-18.636,3.106-17.282,13.35-6.837,23.919-87.689,20.489-47.839-4.533-59.211-34.164h-41l-9.115,25.047-124.107,2.279-9.116-19.361-35.291,6.838-4.583,22.767-38.724-5.686Zm3171.023-1959.335,37.569,1.728,1.7,17.057h-32.461Zm213.523-114.439,17.081-15.379,20.489,6.838,3.406,13.65Zm-133.25,140.061,17.083-17.082,22.216-3.406,1.705,6.838-10.245,11.947h-17.081l-3.433,8.541Zm-317.716-199.848-8.541-27.326-8.541-49.543,22.189-15.379,15.38-30.758,134.951-93.95s22.217,0,11.947-44.408c-1.7,3.406,88.841-102.492,88.841-102.492l39.273-34.164,11.974-47.839s37.569-25.623,35.865-59.787c3.434,5.135,30.759-42.7,71.761-3.406-1.729,3.406,68.326,82,194.737,18.785,0,5.135-23.919,52.949-44.432,64.921,0,3.406-30.733-32.461-66.625,18.785,0,5.134-39.273,52.949-105.9,39.3,1.7,3.406-71.759,8.541-63.218,56.355,1.729,3.431-81.977,17.082-97.355,80.3l6.837,25.623-25.623-6.838-25.623,47.839s15.379,27.326-61.516,34.164c1.729,1.7-46.109,34.164-46.109,34.164s-5.11,109.3-22.217,134.952c3.432,5.109-6.813-8.566-6.813-8.566l5.109-40.977Zm618.354-63.218,71.757-17.082-5.133-11.947,61.514-22.217,47.814,30.758-6.837,17.082L12292.386,1219l-27.326-23.92Zm191.332-541.486c8.539,56.355,71.733,34.164,30.756-18.81,3.406,5.135,29.03-1.7,29.03-1.7l15.378,13.676s56.355-13.676,58.084-75.165c-52.973-6.838-88.841-76.869,3.406-27.326-1.7,5.11,39.3-8.541,35.869-54.677,3.429,3.431,64.919-11.947,102.49-64.9,1.728,0,25.622-8.541,25.622-8.541l11.973-76.869h22.191s11.972,30.732,68.326,5.11c-1.7,0-11.946-76.869,78.6-78.572,3.406,6.838,17.082-1.7,15.354-37.57,1.728,3.406-13.651-63.218-13.651-63.218l37.571-44.408,20.512,13.65,37.57,92.247s82,30.757,158.873-8.516c1.7,3.406,75.164-54.677,83.7-83.731,0,3.431,99.061-78.572,99.061-78.572s85.409-37.57,119.572,15.379c0,3.431-5.11,18.785-5.11,18.785s-63.218,32.461-5.133,51.246c0,6.838-20.486,47.839-20.486,47.839l-34.164,3.406s-68.329-27.326-145.2,39.3c3.406,1.7-49.544,25.623-49.544,25.623s-58.082,0-80.3,27.326c5.136-1.7-80.275,35.892-148.6,117.87,0,5.135-102.493,66.625-136.657,18.785,15.379-40.977-102.49,8.541-42.7,32.461-22.217,70.031-58.083,76.869-51.247,76.869,1.7,3.431-42.7,18.785-42.7,18.785s-80.3,44.433-112.761,117.87c0,1.7-27.326,44.408-81.979,25.623-3.429,3.432-63.216,44.408-66.624,90.544,1.705,1.7-13.673,5.135-13.673,5.135s-81.98,0-37.573-59.787c6.838,0,18.786-6.838,18.786-6.838s32.46-6.838,10.245-39.3C12446.148,643.349,12452.962,612.592,12449.555,610.888Zm-430.48,714.033s-42.7,13.65-40.976,17.082c1.7,3.406,32.436,41,32.436,41l34.164-18.81,5.134-27.326Zm-485.13,1.7c9.116,31.885,9.116,81.978,34.164,111.609-2.28,2.254,31.885,59.211,100.213,72.886,2.277,0,91.118-84.282,91.118-84.282,38.122,18.735,80.527,6.237,82.78,6.237,2.277,0,.878,39.3-96.454,41.578,0,4.583-18.209,22.792-18.209,22.792l-15.956,2.279s-14.1,55.729-19.462,70.932c-45.56-1.8-68.927-14.677-175.979,28.554,2.28,0-41.953-33.913-58.935,57.207,9.067-2.3-30.307,14.127-30.307,14.127s-2.73,18.534-17.934,25.146c-30.656,13.375-85.385,13.4-84.559-38.8-2.3,2.254-47.839-13.676-61.489,45.535,0,2.3,31.86,27.326,31.86,27.326-1.052,7.94-145.772-11.371-145.772-9.117,2.654,9.017-38.722,11.421-91.1-29.58-177.657,2.254-296.1,138.909-378.08,218.658-82,79.7-164.584,207.938-178.233,278.57.976,1.4,18.51,32.135,18.51,32.135l-15.655,90.118s-29.6,29.63-34.164,84.307c0,2.254-45.559-34.164-45.559-34.164s-13.678-20.513-13.678-22.793c0-2.3-104.743-70.632-107.023-70.632-2.3,0-52.372,2.3-104.8-38.7,4.584,0-36.418-13.676-36.418-13.676L10062.6,2171.6l-27.325-25.047h-15.931s-86.562-50.119-113.888-93.375c-18.233-15.955-66.051-11.4-84.259-25.072-18.233-13.651-77.444-100.187-243.729-88.816-118.421,38.747-154.013,81.277-198.145,111.608,9.118,0-54.677,11.371-102.491,91.12-.275,18.86-25.047,2.254-25.047,2.254s-15.153-12.749-18.208-18.209c-4.359-12.072-11.822-17.081-11.822-17.081s-13.25-74.039-36.019-69.455c9.092,4.534-31.909-22.792-31.909-22.792s-9.093-82-107.025-41c0,2.3-31.884-25.047-63.794-13.651,4.585,2.279-102.491,70.607-97.907,223.192,4.533,13.65,27.326,18.234,56.905,9.117,0,6.838,91.121,84.282,91.121,84.282s86.535-20.488,88.841-18.234c2.279,2.279,15.929,11.4,15.929,11.4s29.606,27.326,27.353,27.326c-2.306,0,4.532,38.722,47.813,56.931-4.557,2.279,52.375,82,91.1,66.073-2.253,4.533,43.281,25.047,45.561,25.047,2.255,0,6.838,15.955,4.558,15.955-2.3,0,13.651,18.209,15.956,18.209,2.254,0-22.793,11.371-45.585,11.371,2.3,4.583-6.838,43.281-70.583,47.839,2.254,4.559-50.143-38.547-70.655-31.709-7.99,2.655-38.849-9.367-42.455-8.741-5.711.951-34.19,30.733-29.656,24.922,31.034-55.278-47.237-85.259-50.419-14.076-14.677,20.839-39.122,34.164-39.122,34.164s-68.328-2.28-56.957,52.373v63.794l-25.8,11.647c0,.025-67.978,8.941-97.207,77.194,2.3,0-34.164-31.934-61.489-15.955,10.268,6.688-114.314-77.194-9.118-227.775,2.279-4.559,4.585-27.351,4.585-27.351h15.93c5.484-1.027,52.5-125.685-47.839-202.7,2.278,4.559-54.678-15.93-54.678-15.93l-27.327-52.4-27.326-6.813s-22.741-13.676-20.488-15.955c2.28-2.254,2.28-27.351,2.28-27.351l-6.838-18.209,10.269-21.34c-1.826-4.483,55.354-.175,21.615-172.247,4.159,8.115-2.8-51.847,95.655-52.373,31.509-.226,29.631-4.283,39.022-24.345,14.1-1.7,33.889-21.215,33.889-21.215l25.047-43.281,25.923,20.914c-4.984,27.977,50.395,23.544,36.441-15.955,0,0,37.847-43.656,37.847-45.961,0-2.279,4.559-18.209,4.559-18.209.626,1.052,19.035-16.606,72.887-50.119-4.56,0,4.534-20.488,4.534-20.488l-59.213-84.283s-70.181-35.767-38.6-80.024c1.952-9.242,2.279-29.079,7.138-40.2,2.356,0,23.744,4.709,42.581-4.308,17.23-8.315,11.5-27.777,32.158-30.331,0,0,42.13,55.078,66.048,56.931-.274.276,43.606,45.56,82,45.56,2.278,2.279,0,45.535,43.28,11.371,9.943,13.25,54.628-18.484,86.536-15.93,0,2.254-13.674,25.047,9.117,31.884,0,2.279,66.048,27.326,66.048,27.326-.148,1.653,131.1-37.845,148.027-168.539,2.279,6.838-41-79.724-41-79.724s27.326-36.418,2.3-68.328c-4.607-12.674-6.236-24.6-9.141-27.326,0,0-31.86-91.1,91.12-120.7,0,0,68.328-9.142,79.7-125.284,6.838,6.813-9.066-182.215-9.066-182.215s79.7-84.282,63.744-159.423c4.583,9.117,50.119-141.214-109.33-421.362,6.838-2.279,0-29.63,0-29.63s27.326-4.533,25.072-54.652c0,9.117,27.352-34.164,27.352-34.164l-9.142-11.371-6.838-22.793,9.142-15.93S9636.7,105.82,9668.585,96.7c0,2.3,66.023,18.209,72.862-68.328,4.582-2.279,34.162-6.838,34.162-6.838L9793.868,55.7l31.86,38.722,75.166,50.119s120.7,150.306,168.54,186.774c47.813,36.418,27.326,109.329,173.1,239.147,145.8,129.818,198.171,170.819,284.708,214.075,4.557,2.279,9.116,91.12,457.8,173.1,2.279,4.559,26.4,1.979,26.4,1.979,3.581,40.225-.9,55.4,23.72,80.024,0,0,85.56,62.442,254.1,39.7,27.373-16.882,196.515-169.717,208.336-173.7,0,2.3,32.863-23.744,31.811-45.936,26.049-11.722,38.572-33.187,54.651-61.49,10.7,5.961,21.441,52.423,20.515,52.4-3.558,5.385-9.143,56.906-59.261,93.374,2.3,4.533-9.067,41-9.067,43.281,0,2.254-68.327,68.328-77.47,123,2.3,4.534,0,20.488,0,20.488l-18.209,31.885s9.093,47.814,45.561,95.654c-2.3,2.279,28.278,19.186,28.278,19.186s58.559,10.946,76.942,23.343c0,0,16.356,15.4-.524,24.32l-27.3-1.452,15.905-9.944-.477-12.4-38.723-3.507,8.439-6.913-30.779-8.441-2.982,12.4,12.424,7.915S11524.828,1294.74,11533.944,1326.625Zm-673.032-380.936L10691.8,896.146s59.786,90.544,92.248,58.083c3.407,8.541,56.379,17.082,56.379,17.082Zm-1409.281,871.2-18.786,25.6s-22.215-6.812-22.215-5.109,3.429,39.273,3.429,39.273l13.677,5.135,25.6-23.92,32.461,1.728C9502.2,1851.53,9464.579,1810.529,9451.631,1816.891Zm-261.563,109.079s-32.235,19.036-30.533,34.414c17.909,25.1,35.868,20.489,39.3,20.489,3.406,0,29.028-6.838,32.435-35.867C9205.169,1919.983,9190.067,1925.969,9190.067,1925.969Zm3.706,20.764s7.339-2.429,8.116,8.165c.826,10.62.425,6.112-8.542,8.591-8.991,2.4-6.513.4-7.738-8.992C9184.356,1945.13,9193.773,1946.733,9193.773,1946.733Zm184.42-1750.945,39.274,15.379s34.163,35.867,27.325,58.058c-6.812,22.216-54.652,25.623-54.652,27.351,0,1.7-42.705-20.513-49.542-51.246C9333.761,214.573,9378.193,195.788,9378.193,195.788ZM9299.6,74.512v85.41l-10.247,23.895L9279.107,177l1.7-22.216s-22.192-35.867-17.083-70.031C9265.434,86.459,9299.6,74.512,9299.6,74.512ZM8598.111,8201.59s14.8-3.406,15.929-1.127c1.153,2.3,27.326,26.225,27.326,26.225s10.245,0,11.4,1.127,3.433,27.325,3.433,27.325l-13.675,13.677-25.071-10.27s0-20.489-1.128-20.489h-10.245s-10.244-18.209-10.244-17.081S8598.111,8201.59,8598.111,8201.59Zm-129.817-636.563c0-1.128,18.208-2.305,18.208-2.305s14.779,10.244,14.779,11.421c0,1.128,0,26.175-1.128,25.047s-15.955,11.371-17.082,11.371-19.361,2.28-19.361,2.28l-7.964-20.489S8468.294,7566.153,8468.294,7565.027Zm-113.912-206.112,2.278,14.778s-6.813,13.676-7.939,13.676c-1.177,0-3.433,39.875-3.433,39.875l-15.954-12.549s2.3-17.082,2.3-18.208c0-1.153,6.838-18.235,5.661-18.235C8336.172,7378.251,8354.382,7358.915,8354.382,7358.915Zm35.664-243.6,29.48,7.337s19.286,19.311,19.286,19.863v49.869l-27.775,1.177s-20.438-21.565-20.438-22.141C8390.6,7170.864,8390.046,7115.312,8390.046,7115.312Z" transform="translate(1.876 1.631)" fill="#bad2da" stroke="#f8fbfa" stroke-miterlimit="10" stroke-width="5"/></g></g></g></g></svg>