<svg width="14" height="15" viewBox="0 0 14 15" fill="none" xmlns="http://www.w3.org/2000/svg">
<g clip-path="url(#clip0_1058_467)">
<path d="M13.3741 0.499817C13.3512 0.500577 13.3288 0.502479 13.3064 0.505901H9.73516C9.399 0.501338 9.12291 0.769816 9.11797 1.1056C9.11341 1.44177 9.38188 1.71785 9.71767 1.7228C9.72337 1.7228 9.72908 1.7228 9.73478 1.7228H11.9168L5.65438 7.98562C5.41214 8.21836 5.40416 8.60358 5.63689 8.84582C5.86962 9.08806 6.25484 9.09604 6.49708 8.86331C6.50316 8.85761 6.50887 8.8519 6.51457 8.84582L12.7774 2.58337V4.76542C12.7728 5.10158 13.0413 5.37767 13.3771 5.38261C13.7133 5.38717 13.9894 5.1187 13.9943 4.78291C13.9943 4.7772 13.9943 4.7715 13.9943 4.7658V1.19155C14.0403 0.858801 13.808 0.551535 13.4748 0.505521C13.4414 0.500958 13.4075 0.499056 13.3741 0.500197V0.499817ZM1.2169 2.93969C0.551786 2.93969 0 3.49148 0 4.15659V13.2833C0 13.9484 0.551786 14.5002 1.2169 14.5002H10.3436C11.0087 14.5002 11.5605 13.9484 11.5605 13.2833V5.63017L10.3436 6.84707V13.2833H1.2169V4.15659H7.65313L8.87003 2.93969H1.2169Z" fill="#138052"/>
</g>
<defs>
<clipPath id="clip0_1058_467">
<rect width="14" height="14.0004" fill="white" transform="translate(0 0.499817)"/>
</clipPath>
</defs>
</svg>
