<svg id="_レイヤー_2-2" xmlns="http://www.w3.org/2000/svg" width="368.152" height="368.16" viewBox="0 0 368.152 368.16">
  <defs>
    <style>
      .cls-1 {
        fill: #1c47a8;
      }
    </style>
  </defs>
  <g id="_レイヤー_1-2">
    <path id="パス_122" data-name="パス 122" class="cls-1" d="M351.69,0a15.09,15.09,0,0,0-1.78.16H256a16,16,0,1,0-.46,32h57.83L148.69,196.85a16,16,0,0,0,22.16,23.08c.16-.15.31-.3.46-.46L336,54.79v57.38a16,16,0,1,0,32,.46V18.19A16,16,0,0,0,354.34.15a15.7,15.7,0,0,0-2.65-.14h0ZM32,64.16a32.237,32.237,0,0,0-32,32v240a32.237,32.237,0,0,0,32,32H272a32.237,32.237,0,0,0,32-32V134.91l-32,32V336.16H32v-240H201.25l32-32Z"/>
  </g>
</svg>
